<?xml version="1.0" encoding="UTF-8" standalone="no"?><!DOCTYPE svg PUBLIC "-//W3C//DTD SVG 1.1//EN" "http://www.w3.org/Graphics/SVG/1.1/DTD/svg11.dtd"><svg width="100%" height="100%" viewBox="0 0 880 704" version="1.1" xmlns="http://www.w3.org/2000/svg" xmlns:xlink="http://www.w3.org/1999/xlink" xml:space="preserve" xmlns:serif="http://www.serif.com/" style="fill-rule:evenodd;clip-rule:evenodd;stroke-linecap:round;stroke-linejoin:round;stroke-miterlimit:1.5;"><rect id="Artboard1" x="0" y="0" width="879.504" height="703.096" style="fill:none;"/><clipPath id="_clip1"><rect x="0" y="0" width="879.504" height="703.096"/></clipPath><g clip-path="url(#_clip1)"><rect x="0" y="0" width="879.504" height="703.096" style="fill:#3e3a6d;stroke:#3e3a6d;stroke-width:4.75px;"/><path d="M593.374,555.479c-2.741,2.983 -5.569,5.933 -8.477,8.842c-41.333,41.333 -91.071,66.325 -137.765,73.236l189.151,0c11.325,0 20.519,-9.194 20.519,-20.519l0,-41.039c0,-11.325 -9.194,-20.52 -20.519,-20.52l-42.909,0Zm-151.257,0l145.834,0c-1.915,2.031 -3.869,4.043 -5.861,6.035c-42.004,42.004 -92.809,66.96 -139.973,72.763l0,-78.798Z" style="fill:#fff;"/><clipPath id="_clip2"><path d="M593.374,555.479c-2.741,2.983 -5.569,5.933 -8.477,8.842c-41.333,41.333 -91.071,66.325 -137.765,73.236l189.151,0c11.325,0 20.519,-9.194 20.519,-20.519l0,-41.039c0,-11.325 -9.194,-20.52 -20.519,-20.52l-42.909,0Zm-151.257,0l145.834,0c-1.915,2.031 -3.869,4.043 -5.861,6.035c-42.004,42.004 -92.809,66.96 -139.973,72.763l0,-78.798Z"/></clipPath><g clip-path="url(#_clip2)"><path d="M593.393,609.975c-0,-4.479 1.042,-7.78 3.127,-9.904c2.085,-2.123 5.811,-3.687 11.178,-4.691l30.696,-5.908c1.892,-0.347 3.455,-1.322 4.691,-2.924c1.236,-1.603 1.853,-3.446 1.853,-5.531l0,-5.329c0,-2.239 -0.782,-4.15 -2.345,-5.733c-1.564,-1.583 -3.466,-2.375 -5.705,-2.375l-39.383,-0l-0,-12.162l39.383,-0c3.745,-0 7.143,0.897 10.193,2.693c3.051,1.795 5.493,4.199 7.327,7.21c1.834,3.012 2.751,6.352 2.751,10.02l-0,5.907c-0,3.244 -0.618,6.255 -1.854,9.035c-1.235,2.78 -2.924,5.107 -5.067,6.979c-2.143,1.873 -4.585,3.079 -7.327,3.62l-34.46,6.545c-1.12,0.231 -1.882,0.511 -2.288,0.839c-0.405,0.329 -0.608,0.879 -0.608,1.651l0,15.695l51.546,0l-0,12.163l-63.708,-0l-0,-27.8Z" style="fill:#c02828;fill-rule:nonzero;"/></g><path d="M373.898,351.402c47.87,-47.422 106.967,-72.796 159.11,-73.111c34.739,-0.21 66.373,10.721 89.401,33.749c10.587,10.587 18.619,22.994 24.186,36.691c-5.805,16.503 -14.969,31.304 -27.619,43.533c-23.191,22.419 -54.624,32.829 -88.965,32.249c-51.383,-0.869 -109.24,-26.303 -156.113,-73.111Z" style="fill:#00a8a8;"/><path d="M370.491,354.867c46.601,47.728 71.457,106.326 71.626,158.026c0.112,34.557 -10.824,66.014 -33.751,88.94c-10.89,10.891 -23.707,19.078 -37.875,24.628c-14.168,-5.55 -26.985,-13.737 -37.875,-24.628c-22.927,-22.926 -33.863,-54.383 -33.75,-88.94c0.168,-51.7 25.024,-110.298 71.625,-158.026l0,0Z" style="fill:#862ba0;"/><path d="M648.475,355.013c0.069,-0.172 0.137,-0.344 0.205,-0.517l0.047,-0.117c21.204,60.697 -3.394,143.892 -66.637,207.135c-62.881,62.88 -145.484,87.556 -206.089,66.966l0.288,-0.126l0.272,-0.119l0.034,-0.015l0.018,-0.008l0.323,-0.143l0.277,-0.123l0.245,-0.111l0.373,-0.168l0.032,-0.015l0.287,-0.131l0.288,-0.132l0.027,-0.013l0.047,-0.021l0.271,-0.126l0.259,-0.121l0.048,-0.022l0.068,-0.032l0.252,-0.119l0.235,-0.111l0.069,-0.033l0.088,-0.042l0.231,-0.111l0.213,-0.102l0.089,-0.043l0.109,-0.052l0.21,-0.103l0.191,-0.093l0.109,-0.053l0.13,-0.063l0.189,-0.094l0.17,-0.084l0.129,-0.064l0.15,-0.075l0.168,-0.084l0.148,-0.074l0.15,-0.076l0.169,-0.085l0.147,-0.076l0.128,-0.064l0.17,-0.087l0.189,-0.097l0.126,-0.065l0.107,-0.055l0.19,-0.099l0.209,-0.109l0.105,-0.055l0.086,-0.045l0.21,-0.111l0.228,-0.12l0.084,-0.045l0.066,-0.034l0.231,-0.124l0.246,-0.132l0.064,-0.034l0.045,-0.025l0.253,-0.137l0.263,-0.143l0.043,-0.023l0.025,-0.014l0.28,-0.154l0.275,-0.151l0.027,-0.016l0.389,-0.217l0.204,-0.114l0.266,-0.15l0.3,-0.17l0.018,-0.01l0.035,-0.02l0.257,-0.148l0.266,-0.153l0.039,-0.022l0.054,-0.031l0.24,-0.14l0.242,-0.141l0.059,-0.034l0.073,-0.043l0.221,-0.131l0.22,-0.129l0.078,-0.047l0.092,-0.055l0.202,-0.12l0.198,-0.119l0.099,-0.06l0.111,-0.066l0.181,-0.11l0.178,-0.108l0.119,-0.073l0.129,-0.078l0.162,-0.1l0.156,-0.096l0.14,-0.087l0.147,-0.09l0.141,-0.089l0.137,-0.085l0.16,-0.101l0.164,-0.102l0.122,-0.078l0.116,-0.073l0.182,-0.116l0.18,-0.114l0.103,-0.066l0.096,-0.061l0.204,-0.132l0.195,-0.125l0.083,-0.054l0.076,-0.05l0.228,-0.148l0.209,-0.137l0.063,-0.042l0.057,-0.037l0.255,-0.168l0.218,-0.145l0.044,-0.029l0.037,-0.025l0.293,-0.197l0.217,-0.145l0.025,-0.017l0.018,-0.012l0.395,-0.269l0.15,-0.101l0.06,-0.042l0.493,-0.339l0.013,-0.009l0.02,-0.014l0.201,-0.14l0.312,-0.218l0.033,-0.023l0.038,-0.026l0.206,-0.146l0.267,-0.189l0.052,-0.037l0.056,-0.039l0.197,-0.142l0.237,-0.169l0.072,-0.052l0.073,-0.052l0.183,-0.134l0.212,-0.153l0.091,-0.067l0.09,-0.065l0.168,-0.124l0.188,-0.138l0.111,-0.082l0.107,-0.079l0.151,-0.113l0.166,-0.123l0.132,-0.099l0.123,-0.091l0.133,-0.101l0.146,-0.11l0.151,-0.115l0.139,-0.105l0.116,-0.089l0.125,-0.095l0.172,-0.132l0.153,-0.118l0.099,-0.076l0.105,-0.081l0.194,-0.151l0.166,-0.13l0.081,-0.063l0.085,-0.067l0.218,-0.172l0.178,-0.139l0.063,-0.051l0.066,-0.052l0.245,-0.196l0.185,-0.147l0.045,-0.037l0.047,-0.037l0.282,-0.228l0.182,-0.148l0.028,-0.022l0.028,-0.023l0.356,-0.292l0.142,-0.116l0.01,-0.008c0.178,-0.147 0.356,-0.294 0.533,-0.442l0.008,-0.007l0.125,-0.104l0.373,-0.314l0.026,-0.022l0.025,-0.021l0.174,-0.148l0.286,-0.243l0.044,-0.038l0.042,-0.036l0.177,-0.152l0.246,-0.212l0.063,-0.054l0.058,-0.05l0.169,-0.148l0.217,-0.188l0.08,-0.072l0.075,-0.065l0.157,-0.139l0.192,-0.169l0.099,-0.088l0.09,-0.08l0.143,-0.128l0.17,-0.151l0.117,-0.107l0.106,-0.094l0.128,-0.117l0.148,-0.133l0.137,-0.125l0.12,-0.109l0.113,-0.104l0.128,-0.117l0.155,-0.144l0.134,-0.123l0.097,-0.09l0.109,-0.1l0.175,-0.165l0.147,-0.136l0.081,-0.077l0.089,-0.084l0.197,-0.186l0.158,-0.149l0.065,-0.062l0.071,-0.067l0.221,-0.212l0.166,-0.158l0.048,-0.047l0.053,-0.051l0.251,-0.243l0.167,-0.163l0.032,-0.031l0.035,-0.034l0.3,-0.294l0.15,-0.148l0.016,-0.016l0.018,-0.017l0.48,-0.478c0,0 0.448,-0.45 0.448,-0.45l0.013,-0.012l0.143,-0.146l0.29,-0.295l0.012,-0.013l0.012,-0.012l0.165,-0.17l0.253,-0.26l0.018,-0.019l0.018,-0.018l0.17,-0.177l0.233,-0.243l0.024,-0.025l0.023,-0.024l0.17,-0.179l0.219,-0.231l0.031,-0.032l0.028,-0.03l0.167,-0.177l0.208,-0.222l0.036,-0.039l0.034,-0.036l0.162,-0.174l0.198,-0.214l0.042,-0.046l0.039,-0.042l0.157,-0.171l0.19,-0.206l0.048,-0.053l0.044,-0.048l0.151,-0.167l0.181,-0.199l0.054,-0.061l0.049,-0.054l0.145,-0.161l0.174,-0.194l0.06,-0.067l0.053,-0.06l0.139,-0.157l0.166,-0.187l0.066,-0.075l0.058,-0.066l0.133,-0.151l0.159,-0.181l0.072,-0.083l0.062,-0.072l0.127,-0.146l0.152,-0.175l0.077,-0.09l0.067,-0.078l0.12,-0.14l0.145,-0.169l0.084,-0.098l0.071,-0.084l0.114,-0.134l0.138,-0.163l0.089,-0.107l0.076,-0.089l0.107,-0.129l0.132,-0.157l0.095,-0.114l0.079,-0.095l0.102,-0.123l0.125,-0.151l0.101,-0.123l0.083,-0.1l0.095,-0.117l0.119,-0.145l0.107,-0.132l0.086,-0.106l0.09,-0.111l0.112,-0.139l0.113,-0.14l0.089,-0.111l0.084,-0.105l0.106,-0.133l0.119,-0.149l0.092,-0.117l0.078,-0.098l0.1,-0.127l0.125,-0.159l0.096,-0.121l0.072,-0.093l0.094,-0.12l0.13,-0.169l0.099,-0.126l0.066,-0.086l0.088,-0.114l0.137,-0.179l0.1,-0.13l0.061,-0.08l0.082,-0.108l0.144,-0.189l0.102,-0.135l0.056,-0.074l0.076,-0.1l0.15,-0.201l0.104,-0.138l0.05,-0.068l0.07,-0.094l0.158,-0.213l0.105,-0.141l0.044,-0.061l0.065,-0.088l0.165,-0.225l0.105,-0.144l0.039,-0.054l0.06,-0.081l0.173,-0.239l0.104,-0.145l0.035,-0.048l0.054,-0.075l0.181,-0.254l0.104,-0.145l0.029,-0.041l0.048,-0.068l0.192,-0.271l0.101,-0.143l0.024,-0.035l0.043,-0.061l0.204,-0.292l0.096,-0.138l0.02,-0.028l0.037,-0.054l0.219,-0.317l0.088,-0.128l0.015,-0.022l0.032,-0.047l0.238,-0.349l0.076,-0.111l0.01,-0.015l0.028,-0.04l0.266,-0.396l0.054,-0.081l0.006,-0.008l0.022,-0.033l0.328,-0.493c0.471,-0.712 0.933,-1.429 1.387,-2.149l0.313,-0.5l0.022,-0.036l0.006,-0.008l0.051,-0.083l0.249,-0.403l0.027,-0.043l0.009,-0.016l0.068,-0.111l0.221,-0.361l0.031,-0.052l0.013,-0.022l0.077,-0.128l0.201,-0.332l0.035,-0.059l0.018,-0.029l0.082,-0.138l0.184,-0.309l0.04,-0.068l0.021,-0.035l0.084,-0.143l0.171,-0.291l0.044,-0.076l0.025,-0.042l0.085,-0.146l0.16,-0.275l0.048,-0.083l0.028,-0.05l0.084,-0.147l0.15,-0.26l0.052,-0.092l0.032,-0.056l0.083,-0.147l0.141,-0.247l0.055,-0.1l0.036,-0.064l0.081,-0.145l0.132,-0.235l0.06,-0.108l0.039,-0.071l0.079,-0.143l0.124,-0.223l0.063,-0.116l0.043,-0.078l0.076,-0.141l0.117,-0.212l0.067,-0.125l0.046,-0.085l0.074,-0.137l0.109,-0.202l0.07,-0.133l0.05,-0.092l0.07,-0.133l0.103,-0.193l0.074,-0.141l0.053,-0.099l0.067,-0.129l0.096,-0.183l0.077,-0.149l0.056,-0.107l0.065,-0.125l0.089,-0.173l0.081,-0.157l0.059,-0.115l0.061,-0.12l0.083,-0.163l0.084,-0.166l0.063,-0.122l0.057,-0.115l0.078,-0.154l0.087,-0.174l0.065,-0.13l0.055,-0.11l0.072,-0.145l0.089,-0.182l0.069,-0.138l0.051,-0.105l0.066,-0.135l0.093,-0.191l0.071,-0.145l0.048,-0.1l0.061,-0.126l0.096,-0.199l0.073,-0.153l0.045,-0.094l0.056,-0.117l0.098,-0.208l0.077,-0.161l0.041,-0.088l0.051,-0.108l0.101,-0.216l0.079,-0.17l0.038,-0.082l0.046,-0.099l0.103,-0.224l0.082,-0.178l0.035,-0.076l0.042,-0.09l0.105,-0.232l0.085,-0.187l0.031,-0.07l0.037,-0.081l0.107,-0.24l0.088,-0.195l0.028,-0.064l0.033,-0.072l0.109,-0.248l0.09,-0.204l0.025,-0.058l0.028,-0.063l0.111,-0.256l0.093,-0.213l0.022,-0.051l0.024,-0.054l0.113,-0.264l0.095,-0.222l0.019,-0.045l0.02,-0.045l0.114,-0.27l0.098,-0.233l0.016,-0.038l0.016,-0.037l0.115,-0.276l0.101,-0.243l0.013,-0.032l0.012,-0.028l0.115,-0.28l0.106,-0.256l0.01,-0.025l0.007,-0.019l0.114,-0.281l0.111,-0.273l0.011,-0.028l0.107,-0.269l0.12,-0.302l0.236,-0.601l0.166,-0.429l0.06,-0.154l0.007,-0.019l0.139,-0.363l0.078,-0.206l0.013,-0.035l0.128,-0.341l0.08,-0.213l0.006,-0.017l0.013,-0.035l0.121,-0.327l0.078,-0.212l0.009,-0.023l0.016,-0.044l0.115,-0.317l0.076,-0.208l0.01,-0.03l0.02,-0.054l0.109,-0.306l0.073,-0.204l0.013,-0.037l0.023,-0.063l0.104,-0.297l0.07,-0.198l0.015,-0.043l0.026,-0.073l0.099,-0.288l0.067,-0.192l0.017,-0.051l0.028,-0.082l0.095,-0.28l0.064,-0.185l0.019,-0.057l0.031,-0.093l0.091,-0.271l0.06,-0.178l0.021,-0.064l0.034,-0.102l0.086,-0.263l0.057,-0.172l0.023,-0.07l0.037,-0.113l0.082,-0.254l0.053,-0.165l0.025,-0.076l0.039,-0.123l0.078,-0.246l0.051,-0.158l0.026,-0.083l0.042,-0.134l0.074,-0.237l0.047,-0.151l0.028,-0.089l0.045,-0.144l0.07,-0.229l0.044,-0.144l0.029,-0.095l0.048,-0.155l0.066,-0.22l0.041,-0.137l0.031,-0.102l0.049,-0.166l0.063,-0.211l0.038,-0.13l0.032,-0.108l0.052,-0.177l0.059,-0.202l0.036,-0.123l0.032,-0.114l0.055,-0.188l0.055,-0.194l0.033,-0.116l0.034,-0.119l0.057,-0.199l0.051,-0.186l0.031,-0.108l0.034,-0.125l0.059,-0.212l0.049,-0.176l0.028,-0.101l0.035,-0.131l0.061,-0.223l0.045,-0.167l0.026,-0.095l0.036,-0.135l0.063,-0.236l0.041,-0.158l0.024,-0.087l0.036,-0.141l0.066,-0.248l0.038,-0.149l0.021,-0.08l0.037,-0.145l0.067,-0.261l0.036,-0.14l0.018,-0.073l0.038,-0.15l0.069,-0.274l0.032,-0.13l0.017,-0.067l0.038,-0.153l0.071,-0.288l0.029,-0.121l0.015,-0.059l0.037,-0.157l0.074,-0.302l0.026,-0.112l0.013,-0.052l0.037,-0.159l0.076,-0.318l0.023,-0.102l0.011,-0.045l0.037,-0.161l0.077,-0.334l0.021,-0.092l0.009,-0.039l0.036,-0.16l0.08,-0.352l0.018,-0.082l0.008,-0.032l0.035,-0.159l0.082,-0.372l0.016,-0.072l0.005,-0.025l0.033,-0.153l0.086,-0.396l0.013,-0.062l0.004,-0.018l0.03,-0.142l0.09,-0.425l0.011,-0.052l0.002,-0.011l0.025,-0.121l0.096,-0.464l0.009,-0.046l0.015,-0.073c0.196,-0.968 0.383,-1.94 0.56,-2.916l0.034,-0.185l0.007,-0.04l0.062,-0.353l0.044,-0.246l0.003,-0.021l0.007,-0.035l0.053,-0.311l0.047,-0.272l0.006,-0.032l0.007,-0.042l0.047,-0.28l0.048,-0.286l0.007,-0.045l0.008,-0.047l0.042,-0.256l0.048,-0.294l0.009,-0.057l0.008,-0.052l0.037,-0.235l0.048,-0.299l0.01,-0.069l0.009,-0.058l0.033,-0.215l0.047,-0.302l0.012,-0.083l0.01,-0.061l0.029,-0.198l0.045,-0.302l0.014,-0.098l0.01,-0.065l0.026,-0.181l0.044,-0.302l0.016,-0.113l0.009,-0.067l0.023,-0.166l0.043,-0.301l0.017,-0.129l0.01,-0.069l0.02,-0.15l0.041,-0.3l0.019,-0.146l0.009,-0.07l0.017,-0.135l0.04,-0.298l0.02,-0.164l0.009,-0.07l0.015,-0.12l0.038,-0.297c47.73,-19.823 86.036,-57.819 106.259,-105.329l0.191,-0.023l0.154,-0.019l0.126,-0.015l0.163,-0.02l0.21,-0.027l0.152,-0.019l0.112,-0.014l0.159,-0.021l0.229,-0.03l0.149,-0.019l0.099,-0.013l0.155,-0.021l0.25,-0.034l0.145,-0.019l0.086,-0.012l0.149,-0.02l0.273,-0.039l0.14,-0.019l0.074,-0.011l0.143,-0.02l0.297,-0.043l0.133,-0.019l0.061,-0.009l0.138,-0.02l0.324,-0.048l0.123,-0.019l0.05,-0.007l0.131,-0.02l0.354,-0.054l0.109,-0.017l0.039,-0.006l0.125,-0.019l0.388,-0.062l0.092,-0.014l0.028,-0.005l0.117,-0.019l0.43,-0.07l0.067,-0.011l0.018,-0.003l0.11,-0.018l0.521,-0.087c4.054,-0.687 8.041,-1.545 11.956,-2.578l0.391,-0.104l0.6,-0.161l0.599,-0.165l0.597,-0.167l0.597,-0.17l0.595,-0.173l0.594,-0.176l0.593,-0.178l0.591,-0.181l0.359,-0.112c4.85,-1.513 9.571,-3.304 14.145,-5.379l0.405,-0.184l0.555,-0.255l0.169,-0.079l0.014,-0.007l0.028,-0.013l0.342,-0.16l0.178,-0.084l0.02,-0.01l0.035,-0.016l0.318,-0.151l0.188,-0.09l0.025,-0.012l0.04,-0.019l0.297,-0.143l0.197,-0.096l0.031,-0.015l0.043,-0.021l0.278,-0.135l0.206,-0.102l0.036,-0.017l0.045,-0.022l0.26,-0.128l0.216,-0.108l0.041,-0.02l0.045,-0.023l0.243,-0.122l0.226,-0.114l0.045,-0.023l0.046,-0.023l0.227,-0.115l0.236,-0.121l0.05,-0.025l0.044,-0.023l0.212,-0.109l0.247,-0.128l0.053,-0.027l0.043,-0.023l0.198,-0.103l0.258,-0.135l0.056,-0.029l0.041,-0.022l0.185,-0.097l0.268,-0.143l0.06,-0.032l0.038,-0.02l0.171,-0.091l0.281,-0.152l0.061,-0.033l0.036,-0.019l0.159,-0.085l0.293,-0.161l0.063,-0.034l0.032,-0.017l0.146,-0.08l0.307,-0.17l0.063,-0.035l0.029,-0.016l0.134,-0.074l0.321,-0.18l0.063,-0.035l0.024,-0.014l0.124,-0.069l0.337,-0.191l0.06,-0.033l0.02,-0.012l0.112,-0.064l0.356,-0.204l0.055,-0.031l0.016,-0.01l0.102,-0.058l0.377,-0.219l0.047,-0.027l0.012,-0.007l0.09,-0.053l0.404,-0.237l0.033,-0.02l0.008,-0.004l0.08,-0.048l0.453,-0.269c1.609,-0.962 3.194,-1.963 4.756,-3.005l0.007,-0.005l0.048,-0.033l0.402,-0.269l0.056,-0.038l0.014,-0.009l0.081,-0.055l0.354,-0.24l0.062,-0.043l0.022,-0.015l0.101,-0.069l0.318,-0.218l0.069,-0.048l0.029,-0.02l0.113,-0.079l0.291,-0.202l0.075,-0.053l0.036,-0.024l0.12,-0.085l0.268,-0.189l0.082,-0.058l0.043,-0.03l0.124,-0.089l0.249,-0.176l0.088,-0.064l0.05,-0.035l0.127,-0.091l0.231,-0.167l0.095,-0.068l0.057,-0.041l0.126,-0.093l0.217,-0.157l0.1,-0.074l0.064,-0.047l0.126,-0.093l0.203,-0.148l0.106,-0.08l0.071,-0.052l0.124,-0.092l0.19,-0.142l0.112,-0.084l0.078,-0.058l0.121,-0.092l0.178,-0.133l0.118,-0.091l0.085,-0.064l0.117,-0.089l0.167,-0.127l0.125,-0.096l0.091,-0.07l0.113,-0.088l0.156,-0.12l0.131,-0.102l0.098,-0.075l0.109,-0.086l0.146,-0.113l0.137,-0.108l0.104,-0.082l0.105,-0.082l0.136,-0.107l0.143,-0.114l0.111,-0.088l0.099,-0.079l0.127,-0.101l0.149,-0.12l0.117,-0.094l0.095,-0.077l0.117,-0.094l0.155,-0.126l0.124,-0.1l0.089,-0.073l0.109,-0.089l0.16,-0.132l0.13,-0.107l0.084,-0.069l0.1,-0.083l0.167,-0.138l0.136,-0.113l0.078,-0.065l0.092,-0.077l0.172,-0.145l0.142,-0.119l0.072,-0.061l0.085,-0.071l0.178,-0.152l0.148,-0.125l0.066,-0.057l0.077,-0.066l0.184,-0.158l0.153,-0.132l0.061,-0.052l0.069,-0.06l0.19,-0.165l0.159,-0.138l0.055,-0.048l0.061,-0.053l0.197,-0.174l0.164,-0.143l0.048,-0.044l0.054,-0.047l0.204,-0.181l0.168,-0.15l0.043,-0.038l0.047,-0.042l0.211,-0.189l0.172,-0.155l0.036,-0.033l0.04,-0.036l0.219,-0.199l0.175,-0.159l0.031,-0.028l0.033,-0.03l0.228,-0.21l0.177,-0.163l0.024,-0.022l0.026,-0.024l0.24,-0.224l0.176,-0.163l0.019,-0.017l0.019,-0.018l0.258,-0.243l0.169,-0.158l0.012,-0.012l0.013,-0.012l0.292,-0.278l0.145,-0.138l0.006,-0.006c0.153,-0.146 0.304,-0.291 0.454,-0.436c0.097,-0.094 0.194,-0.188 0.289,-0.281l0.009,-0.008l0.087,-0.085l0.175,-0.171l0.017,-0.017l0.017,-0.016l0.097,-0.096l0.147,-0.144l0.026,-0.026l0.025,-0.025l0.097,-0.096l0.129,-0.128l0.035,-0.035l0.033,-0.032l0.092,-0.092l0.116,-0.116l0.044,-0.044l0.04,-0.04l0.087,-0.087l0.103,-0.105l0.053,-0.053l0.048,-0.049l0.08,-0.08l0.093,-0.094l0.062,-0.063l0.055,-0.057l0.073,-0.073l0.082,-0.085l0.071,-0.072l0.063,-0.065l0.065,-0.066l0.073,-0.075l0.08,-0.083l0.07,-0.072l0.057,-0.059l0.063,-0.065l0.089,-0.093l0.077,-0.079l0.049,-0.052l0.054,-0.056l0.099,-0.104l0.083,-0.086l0.041,-0.043l0.046,-0.048l0.109,-0.115l0.088,-0.093l0.033,-0.035l0.037,-0.038l0.121,-0.129l0.091,-0.097l0.026,-0.027l0.028,-0.03l0.136,-0.145l0.092,-0.098l0.017,-0.019l0.019,-0.021l0.16,-0.171l0.084,-0.091l0.02,-0.022l0.26,-0.281c0.091,-0.099 0.18,-0.197 0.271,-0.296l0.005,-0.006l0.068,-0.075l0.181,-0.198l0.028,-0.031l0.086,-0.095l0.145,-0.161l0.023,-0.026l0.021,-0.022l0.087,-0.098l0.127,-0.141l0.032,-0.036l0.028,-0.031l0.084,-0.095l0.114,-0.127l0.04,-0.045l0.034,-0.039l0.08,-0.09l0.102,-0.115l0.048,-0.055l0.042,-0.048l0.073,-0.083l0.091,-0.104l0.058,-0.066l0.048,-0.055l0.067,-0.076l0.081,-0.094l0.066,-0.076l0.055,-0.063l0.06,-0.069l0.072,-0.084l0.075,-0.087l0.061,-0.07l0.052,-0.061l0.064,-0.074l0.084,-0.098l0.066,-0.078l0.045,-0.053l0.055,-0.064l0.094,-0.111l0.071,-0.084l0.038,-0.044l0.047,-0.055l0.104,-0.124l0.075,-0.089l0.031,-0.036l0.038,-0.046l0.117,-0.14l0.077,-0.091l0.023,-0.028l0.03,-0.036l0.133,-0.16l0.076,-0.091l0.015,-0.019l0.023,-0.026l0.157,-0.192l0.065,-0.078l0.023,-0.027l0.237,-0.29c0.086,-0.105 0.171,-0.209 0.256,-0.315l0.235,-0.291l0.022,-0.027l0.057,-0.071l0.162,-0.201l0.023,-0.029l0.014,-0.018l0.066,-0.083l0.137,-0.171l0.031,-0.039l0.02,-0.026l0.067,-0.085l0.12,-0.151l0.039,-0.05l0.027,-0.034l0.065,-0.082l0.107,-0.137l0.047,-0.06l0.033,-0.042l0.06,-0.078l0.096,-0.122l0.056,-0.073l0.038,-0.049l0.055,-0.071l0.086,-0.111l0.065,-0.084l0.043,-0.056l0.05,-0.065l0.076,-0.099l0.074,-0.097l0.048,-0.063l0.044,-0.057l0.067,-0.088l0.084,-0.111l0.052,-0.068l0.037,-0.049l0.059,-0.078l0.095,-0.126l0.054,-0.072l0.031,-0.041l0.051,-0.068l0.107,-0.142l0.056,-0.075l0.024,-0.033l0.043,-0.057l0.121,-0.163l0.055,-0.074l0.017,-0.024l0.036,-0.047l0.14,-0.191l0.049,-0.065l0.011,-0.015l0.027,-0.038l0.207,-0.282c0.238,-0.326 0.474,-0.654 0.709,-0.983l0.206,-0.289l0.03,-0.043l0.029,-0.041l0.162,-0.229l0.033,-0.047l0.011,-0.015l0.039,-0.056l0.137,-0.195l0.041,-0.06l0.016,-0.022l0.041,-0.06l0.121,-0.173l0.049,-0.072l0.021,-0.029l0.041,-0.06l0.106,-0.154l0.059,-0.085l0.025,-0.036l0.038,-0.056l0.095,-0.139l0.068,-0.099l0.028,-0.042l0.035,-0.051l0.085,-0.124l0.077,-0.115l0.031,-0.046l0.031,-0.045l0.075,-0.111l0.088,-0.132l0.034,-0.049l0.025,-0.038l0.067,-0.099l0.1,-0.15l0.033,-0.051l0.021,-0.031l0.058,-0.087l0.114,-0.172l0.032,-0.049l0.015,-0.022l0.05,-0.076l0.131,-0.2l0.027,-0.041l0.01,-0.015l0.042,-0.064l0.175,-0.267c0.441,-0.679 0.875,-1.362 1.303,-2.051l0.164,-0.266l0.201,-0.326l0.053,-0.088l0.008,-0.013l0.016,-0.026l0.122,-0.2l0.063,-0.103l0.01,-0.018l0.018,-0.029l0.107,-0.177l0.072,-0.12l0.013,-0.022l0.017,-0.027l0.095,-0.16l0.083,-0.138l0.014,-0.023l0.014,-0.025l0.085,-0.142l0.094,-0.159l0.014,-0.024l0.012,-0.019l0.075,-0.128l0.107,-0.181l0.013,-0.022l0.008,-0.014l0.066,-0.113l0.193,-0.33l0.142,-0.245c0.668,-1.157 1.316,-2.326 1.945,-3.507c0.091,-0.171 0.181,-0.341 0.271,-0.512l0.05,-0.095l0.044,-0.086c0.089,-0.169 0.178,-0.339 0.266,-0.509l0.044,-0.085l0.051,-0.099c0.087,-0.17 0.175,-0.34 0.261,-0.51l0.038,-0.074l0.055,-0.109c0.087,-0.172 0.174,-0.344 0.261,-0.516l0.03,-0.06l0.057,-0.115l0.087,-0.176l0.157,-0.315l0.04,-0.081l0.056,-0.115l0.108,-0.22l0.118,-0.244l0.055,-0.111l0.049,-0.102l0.133,-0.277l0.092,-0.192l0.058,-0.122l0.029,-0.061l0.172,-0.361l0.071,-0.152l0.057,-0.121l0.034,-0.073c0.079,-0.169 0.158,-0.339 0.236,-0.509l0.054,-0.115l0.041,-0.089c0.077,-0.169 0.154,-0.337 0.231,-0.506l0.048,-0.105l0.046,-0.104c0.076,-0.168 0.152,-0.337 0.228,-0.506l0.041,-0.092l0.052,-0.117c0.075,-0.17 0.15,-0.34 0.225,-0.51l0.034,-0.077l0.055,-0.128l0.064,-0.145l0.157,-0.364l0.031,-0.07l0.057,-0.133l0.079,-0.184l0.117,-0.276l0.05,-0.116l0.054,-0.13l0.098,-0.232l0.091,-0.218l0.055,-0.132l0.045,-0.109l0.123,-0.298l0.071,-0.173l0.055,-0.134l0.027,-0.067c0.071,-0.174 0.141,-0.347 0.211,-0.521l0.051,-0.128l0.034,-0.084Z" style="fill:#fff;"/><path d="M367.959,75.426c15.176,5.528 28.872,14.03 40.407,25.565c22.927,22.927 33.863,54.384 33.75,88.941c-0.169,51.705 -25.03,110.312 -71.643,158.044c0,0 -0.264,-0.263 -0.264,-0.263c-47.209,-48.841 -71.907,-108.804 -71.336,-161.291c0.378,-34.738 11.844,-66.182 35.259,-88.817c9.902,-9.573 21.308,-16.958 33.826,-22.179l0.001,0Z" style="fill:#5aa1ff;"/><path d="M367.094,351.412c-47.868,47.427 -106.972,72.807 -159.12,73.122c-34.738,0.21 -66.373,-10.721 -89.401,-33.749c-11.272,-11.272 -19.647,-24.608 -25.182,-39.372l-0,-0.001c5.535,-14.765 13.91,-28.1 25.182,-39.372c23.028,-23.028 54.663,-33.959 89.401,-33.749c52.147,0.315 111.248,25.693 159.12,73.121Z" style="fill:#ff6b4a;"/><path d="M91.54,345.34l-0.153,0.362c-19.587,-60.441 5.209,-142.095 67.506,-204.391c61.994,-61.995 143.16,-86.851 203.514,-67.781l-0.174,0.081l-0.022,0.01l-0.037,0.017l-0.301,0.14l-0.199,0.094l-0.038,0.018l-0.047,0.022l-0.248,0.117l-0.226,0.108l-0.052,0.024l-0.049,0.024l-0.204,0.097l-0.256,0.124l-0.063,0.03l-0.044,0.022l-0.166,0.08l-0.291,0.143l-0.069,0.033l-0.035,0.018l-0.133,0.065l-0.333,0.165l-0.067,0.033l-0.024,0.012l-0.103,0.051l-0.394,0.198l-0.046,0.024l-0.011,0.005c-0.744,0.376 -1.485,0.76 -2.22,1.152l-0.019,0.01l-0.09,0.048l-0.349,0.187l-0.08,0.044l-0.039,0.021l-0.117,0.063l-0.28,0.152l-0.102,0.056l-0.057,0.031l-0.123,0.067l-0.233,0.129l-0.123,0.068l-0.076,0.042l-0.117,0.065l-0.197,0.11l-0.145,0.081l-0.094,0.053l-0.107,0.06l-0.166,0.094l-0.167,0.095l-0.111,0.062l-0.095,0.055l-0.138,0.078l-0.19,0.11l-0.127,0.072l-0.079,0.047l-0.112,0.064l-0.217,0.127l-0.139,0.08l-0.064,0.038l-0.088,0.051l-0.247,0.146l-0.147,0.086l-0.047,0.028l-0.064,0.038l-0.287,0.172l-0.146,0.087l-0.03,0.017l-0.042,0.025l-0.359,0.217l-0.112,0.068l-0.011,0.007c-0.176,0.107 -0.352,0.214 -0.528,0.323l-0.493,0.305l-0.026,0.016l-0.021,0.013l-0.145,0.091l-0.306,0.191l-0.046,0.03l-0.04,0.024l-0.161,0.102l-0.249,0.158l-0.067,0.043l-0.058,0.037l-0.157,0.101l-0.213,0.136l-0.087,0.057l-0.076,0.048l-0.146,0.095l-0.185,0.12l-0.107,0.07l-0.093,0.061l-0.132,0.087l-0.159,0.104l-0.128,0.085l-0.111,0.073l-0.116,0.077l-0.135,0.09l-0.149,0.1l-0.127,0.085l-0.1,0.067l-0.113,0.076l-0.171,0.116l-0.142,0.096l-0.082,0.056l-0.092,0.062l-0.195,0.134l-0.155,0.106l-0.065,0.045l-0.07,0.048l-0.223,0.154l-0.164,0.114l-0.047,0.033l-0.049,0.034l-0.26,0.182l-0.164,0.115l-0.029,0.021l-0.029,0.02l-0.331,0.235l-0.129,0.092l-0.011,0.007c-0.166,0.118 -0.331,0.237 -0.497,0.357l-0.009,0.006l-0.12,0.088l-0.34,0.246l-0.027,0.02l-0.027,0.02l-0.162,0.119l-0.259,0.189l-0.047,0.035l-0.045,0.033l-0.162,0.121l-0.22,0.163l-0.066,0.05l-0.062,0.046l-0.152,0.115l-0.192,0.143l-0.086,0.065l-0.079,0.06l-0.139,0.105l-0.166,0.127l-0.106,0.081l-0.095,0.072l-0.124,0.096l-0.144,0.11l-0.126,0.098l-0.111,0.085l-0.108,0.084l-0.122,0.095l-0.146,0.115l-0.127,0.098l-0.091,0.072l-0.101,0.08l-0.169,0.133l-0.139,0.111l-0.074,0.059l-0.082,0.064l-0.192,0.154l-0.151,0.121l-0.057,0.046l-0.062,0.049l-0.221,0.179l-0.157,0.127l-0.039,0.032l-0.043,0.035l-0.262,0.214l-0.15,0.123l-0.023,0.019l-0.023,0.019l-0.363,0.301l-0.084,0.069l-0.005,0.004c-0.158,0.131 -0.316,0.263 -0.473,0.396l-0.013,0.01l-0.129,0.11l-0.298,0.252l-0.032,0.027l-0.029,0.025l-0.153,0.13l-0.238,0.204l-0.05,0.043l-0.046,0.04l-0.15,0.13l-0.203,0.175l-0.069,0.061l-0.063,0.054l-0.139,0.122l-0.177,0.155l-0.088,0.077l-0.078,0.069l-0.127,0.112l-0.153,0.136l-0.107,0.095l-0.094,0.083l-0.112,0.1l-0.132,0.118l-0.126,0.114l-0.108,0.097l-0.097,0.088l-0.111,0.1l-0.146,0.133l-0.122,0.111l-0.081,0.075l-0.092,0.083l-0.167,0.154l-0.135,0.123l-0.065,0.061l-0.072,0.067l-0.191,0.178l-0.144,0.133l-0.049,0.046l-0.054,0.05l-0.22,0.207l-0.147,0.138l-0.032,0.031l-0.036,0.034l-0.266,0.253l-0.134,0.127l-0.016,0.016l-0.018,0.016l-0.431,0.416c-0,-0 -0.458,0.445 -0.458,0.445l-0.012,0.012l-0.147,0.144l-0.296,0.291l-0.012,0.012l-0.012,0.012l-0.169,0.168l-0.259,0.257l-0.018,0.019l-0.018,0.018l-0.174,0.175l-0.239,0.24l-0.025,0.025l-0.023,0.024l-0.173,0.176l-0.225,0.228l-0.031,0.032l-0.029,0.03l-0.17,0.175l-0.213,0.219l-0.037,0.039l-0.034,0.035l-0.166,0.173l-0.203,0.211l-0.043,0.045l-0.04,0.042l-0.16,0.169l-0.194,0.204l-0.049,0.052l-0.045,0.048l-0.154,0.165l-0.186,0.197l-0.055,0.059l-0.05,0.054l-0.149,0.16l-0.177,0.191l-0.061,0.067l-0.055,0.059l-0.143,0.156l-0.169,0.185l-0.067,0.073l-0.06,0.066l-0.137,0.15l-0.162,0.179l-0.073,0.081l-0.064,0.071l-0.13,0.146l-0.155,0.173l-0.079,0.088l-0.069,0.077l-0.124,0.141l-0.148,0.166l-0.084,0.096l-0.074,0.083l-0.118,0.135l-0.14,0.161l-0.091,0.104l-0.077,0.089l-0.112,0.129l-0.134,0.154l-0.096,0.112l-0.082,0.095l-0.106,0.124l-0.127,0.148l-0.101,0.12l-0.086,0.101l-0.1,0.118l-0.12,0.142l-0.108,0.128l-0.09,0.106l-0.094,0.113l-0.113,0.136l-0.113,0.136l-0.094,0.112l-0.088,0.107l-0.107,0.129l-0.119,0.145l-0.097,0.118l-0.083,0.102l-0.1,0.122l-0.124,0.153l-0.101,0.124l-0.077,0.096l-0.094,0.116l-0.13,0.162l-0.104,0.13l-0.071,0.089l-0.088,0.11l-0.135,0.171l-0.108,0.135l-0.066,0.084l-0.081,0.103l-0.141,0.179l-0.111,0.141l-0.06,0.078l-0.076,0.096l-0.146,0.189l-0.114,0.147l-0.055,0.072l-0.069,0.089l-0.152,0.199l-0.116,0.151l-0.05,0.066l-0.063,0.083l-0.158,0.208l-0.119,0.157l-0.045,0.06l-0.057,0.075l-0.163,0.219l-0.121,0.161l-0.04,0.055l-0.052,0.068l-0.169,0.229l-0.123,0.166l-0.035,0.048l-0.045,0.061l-0.176,0.241l-0.124,0.17l-0.031,0.042l-0.039,0.054l-0.182,0.253l-0.125,0.173l-0.026,0.036l-0.034,0.046l-0.19,0.267l-0.125,0.174l-0.021,0.03l-0.028,0.039l-0.199,0.282l-0.123,0.175l-0.016,0.024l-0.023,0.032l-0.21,0.301l-0.119,0.171l-0.012,0.017l-0.017,0.025l-0.227,0.329l-0.109,0.159l-0.008,0.011l-0.011,0.016l-0.259,0.382l-0.084,0.122l-0.003,0.005c-0.238,0.351 -0.473,0.704 -0.707,1.058l-0.004,0.007l-0.111,0.168l-0.224,0.341l-0.009,0.014l-0.009,0.014l-0.137,0.211l-0.185,0.286l-0.013,0.02l-0.015,0.023l-0.145,0.226l-0.165,0.258l-0.017,0.026l-0.019,0.031l-0.148,0.233l-0.151,0.239l-0.02,0.032l-0.025,0.039l-0.147,0.235l-0.14,0.224l-0.024,0.039l-0.029,0.048l-0.145,0.234l-0.131,0.212l-0.027,0.045l-0.035,0.056l-0.142,0.233l-0.122,0.2l-0.031,0.051l-0.039,0.065l-0.139,0.23l-0.114,0.19l-0.034,0.056l-0.045,0.075l-0.135,0.227l-0.107,0.18l-0.036,0.062l-0.05,0.084l-0.131,0.223l-0.1,0.171l-0.039,0.066l-0.055,0.094l-0.127,0.22l-0.094,0.161l-0.041,0.072l-0.06,0.104l-0.124,0.216l-0.086,0.151l-0.044,0.077l-0.065,0.114l-0.12,0.212l-0.08,0.142l-0.046,0.081l-0.07,0.125l-0.116,0.207l-0.074,0.133l-0.047,0.085l-0.076,0.137l-0.111,0.202l-0.069,0.125l-0.048,0.088l-0.082,0.149l-0.107,0.197l-0.063,0.116l-0.05,0.092l-0.087,0.161l-0.103,0.192l-0.057,0.106l-0.051,0.095l-0.093,0.174l-0.099,0.187l-0.052,0.098l-0.05,0.096l-0.1,0.189l-0.095,0.181l-0.046,0.089l-0.051,0.098l-0.106,0.203l-0.09,0.176l-0.042,0.08l-0.05,0.098l-0.112,0.218l-0.087,0.171l-0.036,0.071l-0.05,0.098l-0.119,0.235l-0.083,0.165l-0.031,0.062l-0.048,0.096l-0.127,0.253l-0.079,0.16l-0.026,0.053l-0.045,0.092l-0.135,0.273l-0.075,0.154l-0.022,0.045l-0.042,0.086l-0.144,0.295l-0.071,0.148l-0.017,0.036l-0.038,0.078l-0.153,0.319l-0.068,0.143l-0.013,0.026l-0.031,0.067l-0.165,0.348l-0.063,0.136l-0.009,0.018l-0.024,0.051l-0.177,0.38l-0.06,0.129l-0.004,0.01l-0.015,0.03l-0.192,0.417l-0.057,0.126c-4.612,10.106 -7.88,20.959 -9.832,32.347l-0.023,0.137l-0.075,0.446l-0.014,0.083l-0.004,0.021l-0.019,0.113l-0.062,0.382l-0.021,0.131l-0.007,0.04l-0.018,0.111l-0.052,0.327l-0.027,0.17l-0.009,0.06l-0.017,0.109l-0.043,0.279l-0.031,0.201l-0.013,0.081l-0.016,0.105l-0.035,0.237l-0.034,0.227l-0.016,0.105l-0.014,0.099l-0.029,0.197l-0.036,0.25l-0.019,0.131l-0.013,0.091l-0.022,0.161l-0.039,0.269c-49.954,19.86 -89.919,59.511 -110.191,109.246l-0.245,0.034l-0.115,0.015l-0.085,0.012l-0.191,0.026l-0.272,0.039l-0.105,0.014l-0.07,0.01l-0.189,0.027l-0.3,0.044l-0.093,0.013l-0.056,0.008l-0.185,0.027l-0.332,0.05l-0.078,0.012l-0.042,0.007l-0.181,0.027l-0.366,0.056l-0.061,0.01l-0.029,0.004l-0.176,0.028l-0.404,0.064l-0.04,0.007l-0.017,0.002l-0.17,0.027l-0.447,0.074l-0.019,0.003c-13.156,2.174 -25.615,6.123 -37.047,11.898l-0.316,0.16l-0.241,0.123l-0.304,0.156l-0.251,0.13l-0.293,0.152l-0.261,0.137l-0.016,0.008l-0.014,0.008l-0.252,0.132l-0.271,0.145l-0.019,0.01l-0.016,0.008l-0.234,0.125l-0.283,0.152l-0.022,0.012l-0.017,0.009l-0.217,0.117l-0.295,0.161l-0.024,0.013l-0.017,0.009l-0.202,0.111l-0.306,0.169l-0.026,0.014l-0.016,0.009l-0.188,0.104l-0.319,0.178l-0.027,0.015l-0.015,0.009l-0.173,0.097l-0.333,0.188l-0.027,0.016l-0.013,0.007l-0.16,0.09l-0.348,0.2l-0.025,0.015l-0.011,0.006l-0.147,0.084l-0.364,0.212l-0.165,0.095l-0.383,0.226l-0.145,0.084l-0.405,0.241l-0.01,0.007c-2.158,1.288 -4.274,2.647 -6.346,4.078l-0.447,0.311l-0.062,0.044l-0.011,0.007l-0.058,0.041l-0.371,0.26l-0.068,0.049l-0.018,0.012l-0.082,0.058l-0.332,0.236l-0.075,0.054l-0.025,0.018l-0.096,0.069l-0.302,0.217l-0.081,0.059l-0.032,0.023l-0.107,0.078l-0.276,0.201l-0.087,0.064l-0.04,0.028l-0.113,0.083l-0.255,0.188l-0.093,0.069l-0.047,0.035l-0.116,0.086l-0.237,0.177l-0.098,0.074l-0.055,0.04l-0.117,0.089l-0.221,0.166l-0.104,0.079l-0.061,0.046l-0.118,0.09l-0.206,0.157l-0.11,0.085l-0.068,0.052l-0.117,0.09l-0.192,0.148l-0.116,0.09l-0.075,0.058l-0.115,0.09l-0.18,0.139l-0.122,0.096l-0.081,0.064l-0.112,0.089l-0.168,0.132l-0.128,0.101l-0.088,0.071l-0.109,0.086l-0.157,0.125l-0.133,0.108l-0.096,0.076l-0.104,0.085l-0.147,0.117l-0.139,0.113l-0.102,0.083l-0.1,0.082l-0.137,0.111l-0.144,0.119l-0.109,0.089l-0.096,0.08l-0.127,0.104l-0.15,0.125l-0.115,0.096l-0.091,0.076l-0.118,0.098l-0.156,0.131l-0.121,0.102l-0.086,0.073l-0.109,0.091l-0.161,0.138l-0.128,0.108l-0.081,0.07l-0.1,0.085l-0.167,0.144l-0.134,0.114l-0.076,0.066l-0.092,0.079l-0.172,0.15l-0.14,0.121l-0.07,0.062l-0.084,0.073l-0.179,0.157l-0.145,0.128l-0.065,0.057l-0.076,0.067l-0.184,0.164l-0.151,0.134l-0.059,0.053l-0.068,0.061l-0.19,0.171l-0.157,0.14l-0.053,0.048l-0.061,0.055l-0.196,0.179l-0.162,0.146l-0.047,0.044l-0.053,0.048l-0.203,0.187l-0.166,0.152l-0.042,0.039l-0.046,0.043l-0.21,0.195l-0.17,0.158l-0.036,0.033l-0.039,0.037l-0.217,0.204l-0.173,0.163l-0.03,0.028l-0.033,0.031l-0.226,0.215l-0.175,0.166l-0.024,0.023l-0.025,0.025l-0.238,0.229l-0.174,0.166l-0.018,0.018l-0.019,0.018l-0.255,0.248l-0.167,0.163l-0.012,0.011l-0.013,0.013l-0.289,0.284l-0.143,0.141l-0.006,0.006c-0.151,0.149 -0.3,0.297 -0.449,0.446c-0.171,0.171 -0.342,0.343 -0.511,0.515l-0.017,0.016l-0.152,0.155l-0.304,0.31l-0.035,0.036l-0.032,0.033l-0.168,0.174l-0.251,0.259l-0.052,0.054l-0.048,0.05l-0.164,0.172l-0.219,0.228l-0.069,0.073l-0.064,0.067l-0.154,0.163l-0.192,0.204l-0.086,0.092l-0.079,0.084l-0.141,0.152l-0.17,0.181l-0.103,0.112l-0.093,0.1l-0.127,0.139l-0.149,0.161l-0.12,0.132l-0.107,0.117l-0.112,0.124l-0.129,0.141l-0.138,0.153l-0.12,0.133l-0.097,0.109l-0.11,0.122l-0.155,0.175l-0.132,0.148l-0.083,0.094l-0.091,0.102l-0.174,0.198l-0.143,0.163l-0.067,0.077l-0.074,0.084l-0.193,0.223l-0.153,0.175l-0.052,0.061l-0.056,0.065l-0.216,0.253l-0.158,0.184l-0.037,0.044l-0.04,0.046l-0.247,0.293l-0.154,0.182l-0.023,0.027l-0.023,0.027l-0.315,0.377l-0.114,0.137l-0.007,0.009c-0.152,0.184 -0.304,0.368 -0.454,0.551l-0.009,0.01l-0.12,0.149l-0.3,0.368l-0.023,0.028l-0.023,0.029l-0.153,0.191l-0.234,0.291l-0.037,0.047l-0.038,0.047l-0.153,0.194l-0.201,0.252l-0.052,0.068l-0.052,0.065l-0.145,0.186l-0.176,0.225l-0.067,0.087l-0.065,0.083l-0.135,0.175l-0.155,0.2l-0.081,0.107l-0.079,0.102l-0.123,0.162l-0.135,0.177l-0.096,0.127l-0.092,0.121l-0.109,0.146l-0.118,0.156l-0.11,0.148l-0.104,0.14l-0.096,0.13l-0.101,0.135l-0.124,0.169l-0.117,0.158l-0.082,0.113l-0.085,0.115l-0.138,0.191l-0.128,0.175l-0.069,0.096l-0.069,0.095l-0.153,0.214l-0.138,0.193l-0.056,0.078l-0.053,0.074l-0.168,0.239l-0.148,0.209l-0.043,0.06l-0.038,0.054l-0.186,0.267l-0.155,0.221l-0.028,0.042l-0.024,0.034l-0.211,0.306l-0.154,0.223l-0.015,0.023l-0.01,0.014l-0.289,0.426l-0.099,0.145l-0.12,0.179l-0.261,0.389l-0.01,0.015l-0.017,0.027l-0.158,0.239l-0.194,0.292l-0.022,0.035l-0.031,0.046l-0.154,0.237l-0.168,0.257l-0.035,0.055l-0.044,0.067l-0.144,0.225l-0.149,0.23l-0.048,0.075l-0.055,0.087l-0.133,0.21l-0.132,0.207l-0.06,0.096l-0.068,0.107l-0.121,0.194l-0.116,0.185l-0.071,0.116l-0.08,0.128l-0.109,0.176l-0.101,0.164l-0.083,0.136l-0.092,0.149l-0.095,0.157l-0.088,0.144l-0.094,0.156l-0.103,0.17l-0.083,0.139l-0.074,0.122l-0.105,0.178l-0.114,0.191l-0.071,0.12l-0.06,0.102l-0.116,0.197l-0.126,0.214l-0.058,0.1l-0.047,0.081l-0.126,0.218l-0.137,0.235l-0.046,0.081l-0.034,0.06l-0.137,0.239l-0.147,0.258l-0.034,0.06l-0.022,0.039l-0.146,0.26l-0.158,0.28l-0.022,0.04l-0.01,0.019l-0.154,0.277l-0.17,0.306l-0.218,0.399l-0.12,0.221l-0.013,0.024l-0.166,0.308l-0.147,0.273l-0.011,0.022l-0.024,0.044l-0.151,0.284l-0.136,0.256l-0.022,0.043l-0.035,0.065l-0.137,0.264l-0.124,0.237l-0.033,0.064l-0.045,0.086l-0.125,0.243l-0.112,0.218l-0.044,0.085l-0.055,0.108l-0.112,0.221l-0.101,0.198l-0.053,0.108l-0.066,0.129l-0.099,0.2l-0.089,0.178l-0.064,0.129l-0.075,0.151l-0.088,0.179l-0.078,0.157l-0.073,0.152l-0.084,0.172l-0.076,0.157l-0.067,0.138l-0.084,0.175l-0.093,0.192l-0.064,0.136l-0.056,0.118l-0.094,0.198l-0.101,0.213l-0.053,0.114l-0.046,0.097l-0.104,0.224l-0.108,0.232l-0.043,0.092l-0.035,0.077l-0.115,0.251l-0.114,0.249l-0.032,0.07l-0.026,0.056l-0.128,0.284l-0.118,0.261l-0.021,0.048l-0.016,0.035l-0.148,0.334l-0.114,0.257l-0.011,0.025l-0.006,0.014l-0.232,0.533l-0.046,0.103l-0.066,0.155l-0.204,0.475l-0.009,0.021l-0.012,0.027l-0.095,0.226Z" style="fill:#fff;"/><path d="M91.518,357.432l0.117,0.279l0.014,0.033l0.007,0.015l0.144,0.336l0.126,0.294l0.143,0.326l0.135,0.31l0.004,0.008l0.013,0.031l0.141,0.318l0.121,0.273l0.013,0.029l0.024,0.054l0.134,0.296l0.112,0.249l0.023,0.049l0.035,0.077l0.125,0.273l0.104,0.227l0.032,0.069l0.046,0.1l0.117,0.25l0.095,0.206l0.042,0.089l0.057,0.122l0.108,0.227l0.087,0.184l0.052,0.109l0.068,0.145l0.099,0.204l0.078,0.163l0.062,0.128l0.081,0.167l0.089,0.182l0.068,0.141l0.073,0.148l0.093,0.189l0.079,0.16l0.06,0.12l0.083,0.166l0.105,0.212l0.07,0.137l0.049,0.1l0.094,0.183l0.119,0.236l0.059,0.114l0.04,0.079l0.103,0.201l0.134,0.259l0.048,0.093l0.03,0.058l0.112,0.215l0.149,0.286l0.037,0.07l0.02,0.038l0.119,0.224l0.168,0.316l0.026,0.049l0.009,0.017l0.116,0.215l0.197,0.366c0.117,0.215 0.234,0.429 0.351,0.644l0.204,0.368l0.12,0.215l0.008,0.015l0.024,0.044l0.174,0.309l0.13,0.23l0.02,0.036l0.036,0.064l0.158,0.276l0.126,0.221l0.032,0.056l0.048,0.084l0.144,0.248l0.119,0.206l0.045,0.077l0.06,0.104l0.132,0.223l0.11,0.188l0.057,0.097l0.074,0.124l0.119,0.2l0.1,0.169l0.071,0.118l0.086,0.143l0.107,0.177l0.09,0.15l0.084,0.138l0.099,0.163l0.095,0.154l0.08,0.131l0.098,0.158l0.112,0.182l0.082,0.132l0.069,0.112l0.112,0.179l0.125,0.2l0.07,0.111l0.058,0.091l0.127,0.2l0.138,0.218l0.057,0.09l0.046,0.072l0.143,0.221l0.15,0.234l0.045,0.069l0.034,0.053l0.16,0.245l0.162,0.248l0.032,0.049l0.022,0.033l0.182,0.275l0.169,0.256l0.019,0.028l0.009,0.014l0.23,0.344l0.15,0.224l0.133,0.195l0.255,0.376l0.009,0.012l0.016,0.025l0.164,0.238l0.201,0.291l0.022,0.032l0.03,0.044l0.161,0.229l0.18,0.259l0.037,0.052l0.044,0.062l0.151,0.214l0.165,0.234l0.052,0.072l0.057,0.08l0.141,0.197l0.15,0.21l0.068,0.093l0.07,0.097l0.13,0.179l0.136,0.188l0.084,0.113l0.083,0.115l0.118,0.16l0.123,0.167l0.1,0.134l0.097,0.131l0.105,0.141l0.109,0.146l0.117,0.155l0.11,0.148l0.093,0.122l0.095,0.126l0.134,0.176l0.124,0.162l0.079,0.104l0.081,0.106l0.154,0.198l0.136,0.177l0.065,0.084l0.067,0.086l0.174,0.223l0.147,0.188l0.052,0.066l0.052,0.066l0.199,0.251l0.155,0.196l0.038,0.047l0.038,0.047l0.231,0.288l0.155,0.194l0.024,0.029l0.022,0.028l0.296,0.364l0.124,0.152l0.009,0.011c0.151,0.184 0.302,0.368 0.454,0.551l0.007,0.009l0.117,0.14l0.312,0.374l0.023,0.027l0.023,0.027l0.155,0.183l0.246,0.292l0.04,0.046l0.037,0.044l0.158,0.185l0.216,0.252l0.056,0.065l0.052,0.061l0.153,0.175l0.193,0.223l0.073,0.084l0.068,0.077l0.144,0.163l0.173,0.197l0.091,0.103l0.083,0.094l0.132,0.148l0.155,0.175l0.11,0.122l0.097,0.109l0.12,0.133l0.138,0.152l0.128,0.142l0.113,0.124l0.107,0.117l0.12,0.132l0.149,0.161l0.127,0.139l0.093,0.1l0.103,0.112l0.17,0.181l0.141,0.152l0.079,0.084l0.086,0.092l0.192,0.203l0.154,0.164l0.064,0.066l0.069,0.074l0.219,0.228l0.164,0.172l0.048,0.05l0.052,0.054l0.251,0.259l0.168,0.174l0.032,0.033l0.035,0.036l0.304,0.309l0.152,0.156l0.017,0.016c0.169,0.172 0.34,0.343 0.511,0.515c0.151,0.151 0.302,0.301 0.455,0.452l0.006,0.006l0.145,0.142l0.293,0.289l0.013,0.012l0.012,0.012l0.169,0.165l0.259,0.251l0.019,0.019l0.018,0.017l0.177,0.169l0.241,0.232l0.026,0.025l0.024,0.023l0.177,0.169l0.23,0.218l0.032,0.03l0.03,0.029l0.176,0.165l0.221,0.207l0.039,0.037l0.036,0.034l0.173,0.16l0.212,0.198l0.047,0.042l0.042,0.04l0.17,0.155l0.204,0.188l0.054,0.049l0.048,0.044l0.165,0.15l0.198,0.18l0.061,0.054l0.055,0.05l0.16,0.143l0.191,0.173l0.069,0.06l0.06,0.054l0.155,0.138l0.186,0.164l0.075,0.067l0.067,0.059l0.15,0.131l0.179,0.157l0.083,0.072l0.072,0.064l0.145,0.125l0.173,0.15l0.09,0.078l0.079,0.068l0.139,0.119l0.167,0.143l0.098,0.084l0.085,0.072l0.133,0.113l0.161,0.136l0.106,0.09l0.091,0.076l0.128,0.107l0.154,0.13l0.114,0.095l0.096,0.08l0.123,0.101l0.147,0.123l0.123,0.101l0.102,0.084l0.117,0.095l0.141,0.116l0.132,0.107l0.108,0.088l0.11,0.089l0.135,0.11l0.14,0.112l0.114,0.092l0.104,0.083l0.129,0.103l0.149,0.119l0.119,0.095l0.098,0.077l0.122,0.097l0.158,0.124l0.125,0.098l0.093,0.072l0.115,0.091l0.167,0.13l0.13,0.101l0.087,0.066l0.108,0.085l0.177,0.135l0.135,0.104l0.081,0.061l0.102,0.079l0.186,0.141l0.141,0.107l0.074,0.056l0.095,0.072l0.197,0.147l0.145,0.109l0.068,0.051l0.088,0.066l0.208,0.153l0.149,0.111l0.062,0.046l0.081,0.06l0.219,0.16l0.153,0.113l0.056,0.04l0.074,0.054l0.231,0.167l0.156,0.114l0.05,0.035l0.067,0.049l0.243,0.174l0.159,0.114l0.043,0.03l0.061,0.043l0.257,0.182l0.16,0.114l0.037,0.026l0.053,0.037l0.273,0.191l0.16,0.112l0.031,0.021l0.045,0.032l0.293,0.202l0.156,0.108l0.024,0.016l0.038,0.027l0.317,0.216l0.148,0.101l0.018,0.012l0.03,0.021l0.352,0.237l0.129,0.087l0.011,0.007l0.023,0.016l0.413,0.275l0.084,0.056l0.004,0.003c0.529,0.35 1.06,0.696 1.592,1.035l0.007,0.005l0.123,0.078l0.378,0.24l0.022,0.014l0.015,0.009l0.166,0.105l0.322,0.202l0.029,0.018l0.023,0.014l0.186,0.115l0.289,0.18l0.036,0.022l0.031,0.019l0.195,0.119l0.267,0.164l0.043,0.026l0.038,0.023l0.2,0.121l0.25,0.151l0.049,0.03l0.047,0.028l0.201,0.12l0.235,0.14l0.056,0.033l0.055,0.033l0.202,0.119l0.221,0.13l0.063,0.037l0.063,0.037l0.201,0.117l0.209,0.122l0.069,0.04l0.072,0.042l0.198,0.113l0.199,0.115l0.075,0.043l0.081,0.046l0.195,0.111l0.188,0.106l0.081,0.046l0.091,0.051l0.191,0.108l0.178,0.099l0.087,0.049l0.1,0.056l0.188,0.103l0.167,0.093l0.093,0.051l0.11,0.061l0.184,0.1l0.157,0.086l0.099,0.054l0.12,0.065l0.179,0.097l0.148,0.08l0.104,0.055l0.13,0.07l0.175,0.093l0.139,0.074l0.109,0.057l0.141,0.075l0.17,0.09l0.129,0.068l0.113,0.059l0.153,0.079l0.165,0.086l0.12,0.062l0.117,0.061l0.164,0.085l0.161,0.081l0.11,0.057l0.121,0.061l0.177,0.091l0.155,0.078l0.101,0.051l0.124,0.062l0.19,0.096l0.149,0.074l0.093,0.046l0.126,0.062l0.204,0.102l0.144,0.07l0.083,0.041l0.128,0.062l0.219,0.108l0.138,0.067l0.074,0.036l0.128,0.061l0.235,0.114l0.132,0.063l0.066,0.031l0.126,0.06l0.253,0.121l0.126,0.059l0.057,0.027l0.123,0.058l0.272,0.128l0.121,0.056l0.047,0.022l0.118,0.054l0.294,0.137l0.115,0.052l0.038,0.018l0.11,0.05l0.319,0.146l0.109,0.048l0.029,0.014l0.097,0.043l0.349,0.157l0.102,0.046l0.02,0.009l0.079,0.035l0.384,0.17l0.096,0.042l0.011,0.005l0.053,0.023l0.426,0.187l0.106,0.046c9.705,4.209 20.068,7.188 30.904,8.964l0.05,0.008l0.012,0.002l0.12,0.02l0.415,0.067l0.092,0.015l0.027,0.004l0.123,0.019l0.366,0.057l0.124,0.02l0.044,0.007l0.124,0.019l0.323,0.048l0.151,0.023l0.06,0.009l0.125,0.019l0.284,0.042l0.173,0.025l0.079,0.012l0.124,0.018l0.25,0.035l0.191,0.027l0.099,0.014l0.122,0.017l0.217,0.03l0.207,0.028l0.121,0.017l0.117,0.016l0.187,0.024l0.22,0.03l0.146,0.019l0.111,0.014l0.158,0.02l0.232,0.031c20.579,48.44 59.94,87.002 108.925,106.526l0.032,0.239l0.02,0.148l0.013,0.1l0.021,0.153l0.034,0.243l0.022,0.161l0.013,0.097l0.019,0.138l0.036,0.245l0.024,0.176l0.014,0.094l0.018,0.123l0.036,0.248l0.028,0.19l0.014,0.09l0.016,0.109l0.038,0.25l0.031,0.205l0.013,0.085l0.014,0.096l0.04,0.251l0.034,0.22l0.013,0.081l0.013,0.083l0.041,0.252l0.037,0.236l0.013,0.075l0.011,0.071l0.042,0.251l0.041,0.253l0.012,0.069l0.01,0.06l0.043,0.249l0.046,0.271l0.011,0.063l0.008,0.049l0.043,0.244l0.051,0.292l0.01,0.056l0.006,0.038l0.043,0.237l0.056,0.316l0.009,0.049l0.005,0.028l0.041,0.222l0.064,0.347l0.008,0.042l0.003,0.017l0.037,0.194l0.074,0.392l0.008,0.042l0.026,0.132c0.188,0.978 0.386,1.952 0.595,2.923l0.023,0.107l0.099,0.453l0.027,0.125l0.002,0.011l0.011,0.049l0.091,0.407l0.034,0.152l0.004,0.019l0.013,0.058l0.086,0.376l0.037,0.165l0.007,0.026l0.015,0.068l0.082,0.351l0.04,0.172l0.008,0.034l0.018,0.076l0.079,0.331l0.041,0.175l0.01,0.041l0.021,0.086l0.076,0.313l0.042,0.174l0.012,0.049l0.023,0.095l0.074,0.296l0.043,0.173l0.014,0.057l0.026,0.104l0.071,0.281l0.043,0.171l0.017,0.064l0.028,0.112l0.069,0.267l0.043,0.167l0.019,0.073l0.032,0.12l0.067,0.254l0.042,0.163l0.022,0.08l0.034,0.129l0.065,0.241l0.042,0.158l0.024,0.088l0.037,0.138l0.063,0.228l0.042,0.153l0.026,0.096l0.04,0.146l0.061,0.216l0.041,0.148l0.029,0.104l0.043,0.154l0.059,0.204l0.04,0.143l0.032,0.112l0.046,0.161l0.056,0.193l0.04,0.137l0.035,0.12l0.049,0.17l0.054,0.181l0.039,0.131l0.038,0.128l0.052,0.177l0.052,0.171l0.037,0.125l0.041,0.136l0.056,0.185l0.049,0.16l0.036,0.118l0.045,0.145l0.059,0.192l0.046,0.149l0.035,0.113l0.048,0.152l0.062,0.2l0.045,0.139l0.033,0.105l0.051,0.162l0.066,0.206l0.042,0.129l0.031,0.099l0.056,0.17l0.068,0.213l0.039,0.119l0.031,0.092l0.059,0.179l0.072,0.219l0.036,0.109l0.029,0.086l0.063,0.187l0.075,0.227l0.034,0.098l0.026,0.079l0.068,0.197l0.079,0.232l0.03,0.089l0.025,0.072l0.072,0.207l0.082,0.237l0.028,0.08l0.022,0.065l0.077,0.216l0.085,0.243l0.025,0.07l0.021,0.058l0.081,0.227l0.088,0.247l0.022,0.061l0.018,0.051l0.087,0.239l0.091,0.25l0.019,0.052l0.016,0.044l0.093,0.252l0.093,0.252l0.016,0.042l0.014,0.037l0.1,0.268l0.094,0.251l0.013,0.033l0.011,0.03l0.11,0.288l0.093,0.245l0.01,0.024l0.008,0.023l0.124,0.32l0.088,0.228l0.012,0.031l0.151,0.384l0.07,0.178l0.002,0.007c0.155,0.39 0.311,0.78 0.47,1.17l0.002,0.005l0.053,0.128l0.176,0.429l0.013,0.032l0.07,0.168l0.155,0.372l0.011,0.028l0.008,0.019l0.077,0.181l0.144,0.342l0.016,0.037l0.011,0.026l0.079,0.185l0.138,0.321l0.02,0.046l0.013,0.032l0.081,0.184l0.132,0.305l0.024,0.055l0.017,0.039l0.08,0.181l0.128,0.291l0.028,0.064l0.02,0.045l0.08,0.177l0.124,0.278l0.033,0.073l0.023,0.051l0.078,0.173l0.121,0.266l0.037,0.081l0.026,0.058l0.077,0.167l0.117,0.255l0.042,0.09l0.029,0.064l0.076,0.161l0.113,0.245l0.047,0.099l0.033,0.07l0.073,0.155l0.111,0.234l0.051,0.108l0.036,0.076l0.071,0.148l0.107,0.225l0.057,0.117l0.039,0.081l0.069,0.142l0.104,0.215l0.062,0.126l0.042,0.086l0.067,0.136l0.101,0.205l0.067,0.135l0.045,0.092l0.065,0.13l0.097,0.195l0.073,0.145l0.048,0.097l0.063,0.122l0.093,0.186l0.079,0.154l0.052,0.102l0.059,0.116l0.09,0.177l0.085,0.163l0.055,0.107l0.056,0.11l0.087,0.167l0.09,0.173l0.059,0.112l0.054,0.102l0.083,0.159l0.096,0.182l0.062,0.116l0.051,0.096l0.079,0.15l0.103,0.192l0.065,0.12l0.048,0.089l0.075,0.141l0.11,0.202l0.068,0.125l0.044,0.081l0.072,0.133l0.118,0.213l0.069,0.127l0.042,0.075l0.068,0.124l0.125,0.223l0.072,0.131l0.039,0.068l0.064,0.115l0.133,0.235l0.074,0.133l0.035,0.062l0.061,0.106l0.141,0.247l0.076,0.134l0.032,0.055l0.056,0.098l0.15,0.26l0.078,0.134l0.028,0.049l0.052,0.089l0.161,0.274l0.078,0.134l0.025,0.042l0.047,0.081l0.172,0.29l0.078,0.131l0.021,0.035l0.043,0.073l0.185,0.308l0.075,0.126l0.018,0.029l0.039,0.065l0.2,0.329l0.071,0.118l0.014,0.022l0.034,0.056l0.22,0.357l0.063,0.103l0.01,0.016l0.03,0.048l0.245,0.395l0.049,0.078l0.006,0.009l0.025,0.041l0.285,0.453l0.022,0.035c0.563,0.887 1.137,1.768 1.725,2.64l0.002,0.004l0.034,0.049l0.288,0.426l0.026,0.038l0.007,0.011l0.064,0.092l0.25,0.367l0.032,0.045l0.012,0.018l0.08,0.115l0.227,0.328l0.037,0.052l0.017,0.025l0.09,0.128l0.21,0.3l0.042,0.059l0.021,0.031l0.097,0.136l0.196,0.277l0.047,0.065l0.027,0.038l0.1,0.139l0.186,0.259l0.052,0.072l0.032,0.045l0.102,0.14l0.176,0.242l0.058,0.079l0.037,0.051l0.103,0.14l0.167,0.228l0.063,0.085l0.043,0.058l0.103,0.138l0.159,0.214l0.069,0.092l0.047,0.064l0.103,0.136l0.151,0.202l0.075,0.098l0.053,0.071l0.101,0.132l0.145,0.191l0.08,0.104l0.059,0.077l0.099,0.129l0.138,0.18l0.087,0.111l0.064,0.083l0.097,0.124l0.132,0.17l0.092,0.117l0.07,0.09l0.094,0.12l0.126,0.159l0.098,0.124l0.076,0.095l0.092,0.116l0.119,0.149l0.104,0.13l0.082,0.102l0.089,0.11l0.113,0.141l0.11,0.136l0.088,0.108l0.085,0.105l0.107,0.131l0.117,0.142l0.093,0.115l0.083,0.099l0.101,0.123l0.123,0.148l0.099,0.12l0.079,0.094l0.095,0.115l0.13,0.154l0.105,0.126l0.075,0.088l0.09,0.106l0.136,0.16l0.111,0.132l0.071,0.083l0.084,0.098l0.143,0.166l0.117,0.138l0.067,0.077l0.078,0.09l0.149,0.172l0.125,0.143l0.062,0.072l0.072,0.082l0.156,0.178l0.131,0.149l0.058,0.065l0.065,0.075l0.164,0.184l0.137,0.154l0.053,0.06l0.06,0.067l0.171,0.19l0.143,0.159l0.049,0.054l0.054,0.06l0.179,0.197l0.148,0.164l0.044,0.047l0.048,0.053l0.187,0.204l0.154,0.168l0.039,0.041l0.042,0.046l0.196,0.211l0.16,0.172l0.033,0.035l0.037,0.039l0.205,0.219l0.164,0.174l0.028,0.03l0.031,0.033l0.216,0.227l0.167,0.176l0.023,0.024l0.024,0.026l0.231,0.239l0.168,0.175l0.017,0.018l0.018,0.019l0.25,0.256l0.163,0.168l0.012,0.012l0.012,0.013l0.286,0.29l0.141,0.144l0.006,0.006c0.15,0.152 0.299,0.302 0.449,0.451c0.166,0.166 0.332,0.331 0.498,0.495l0.016,0.016l0.15,0.148l0.3,0.294l0.035,0.034l0.032,0.031l0.168,0.163l0.25,0.243l0.053,0.051l0.049,0.047l0.166,0.158l0.22,0.212l0.071,0.067l0.065,0.062l0.158,0.149l0.197,0.186l0.089,0.084l0.081,0.077l0.147,0.136l0.175,0.164l0.109,0.101l0.097,0.09l0.134,0.123l0.155,0.144l0.129,0.117l0.112,0.104l0.12,0.109l0.137,0.125l0.148,0.134l0.128,0.116l0.106,0.094l0.117,0.107l0.17,0.151l0.143,0.128l0.09,0.08l0.099,0.088l0.192,0.17l0.157,0.138l0.075,0.065l0.081,0.071l0.217,0.19l0.168,0.147l0.058,0.05l0.063,0.054l0.247,0.213l0.176,0.151l0.042,0.036l0.044,0.038l0.288,0.245l0.172,0.146l0.025,0.021l0.026,0.022l0.379,0.318l0.119,0.1l0.008,0.007c0.177,0.147 0.355,0.295 0.533,0.442l0.01,0.008l0.137,0.112l0.361,0.296l0.029,0.023l0.027,0.022l0.179,0.145l0.285,0.23l0.048,0.039l0.045,0.036l0.182,0.145l0.247,0.198l0.067,0.053l0.063,0.05l0.175,0.137l0.22,0.174l0.086,0.068l0.08,0.062l0.164,0.128l0.196,0.153l0.107,0.082l0.097,0.075l0.151,0.116l0.174,0.134l0.127,0.097l0.115,0.087l0.136,0.103l0.153,0.117l0.148,0.111l0.132,0.1l0.12,0.09l0.134,0.1l0.169,0.126l0.148,0.11l0.105,0.077l0.113,0.084l0.192,0.141l0.164,0.121l0.088,0.064l0.094,0.068l0.217,0.157l0.177,0.13l0.071,0.05l0.074,0.054l0.245,0.175l0.189,0.136l0.053,0.037l0.055,0.039l0.28,0.198l0.193,0.137l0.036,0.024l0.035,0.025l0.338,0.236l0.175,0.122l0.017,0.012c0.188,0.13 0.377,0.26 0.566,0.389l0.003,0.003l0.086,0.058l0.459,0.312l0.021,0.014l0.023,0.015l0.188,0.127l0.321,0.215l0.041,0.027l0.04,0.027l0.2,0.132l0.273,0.181l0.061,0.04l0.06,0.039l0.194,0.127l0.242,0.158l0.081,0.053l0.078,0.051l0.183,0.117l0.216,0.14l0.103,0.065l0.096,0.062l0.169,0.107l0.193,0.123l0.123,0.078l0.115,0.073l0.153,0.096l0.171,0.107l0.146,0.091l0.133,0.083l0.136,0.084l0.15,0.093l0.168,0.103l0.15,0.093l0.12,0.072l0.128,0.079l0.192,0.116l0.168,0.102l0.101,0.061l0.108,0.065l0.217,0.129l0.183,0.11l0.083,0.05l0.087,0.052l0.245,0.144l0.197,0.116l0.064,0.038l0.067,0.039l0.278,0.162l0.204,0.119l0.046,0.026l0.046,0.027l0.326,0.187l0.199,0.114l0.026,0.015l0.026,0.015l0.441,0.249l0.125,0.071l0.007,0.004c0.199,0.112 0.399,0.224 0.599,0.335l0.015,0.008l0.169,0.093l0.385,0.212l0.035,0.019l0.033,0.018l0.202,0.11l0.314,0.17l0.057,0.031l0.052,0.028l0.202,0.108l0.275,0.147l0.079,0.042l0.071,0.038l0.193,0.101l0.245,0.13l0.101,0.053l0.091,0.047l0.178,0.093l0.22,0.115l0.124,0.063l0.109,0.057l0.163,0.083l0.196,0.101l0.148,0.075l0.127,0.065l0.145,0.073l0.173,0.088l0.174,0.086l0.143,0.072l0.128,0.064l0.151,0.075l0.2,0.098l0.159,0.08l0.109,0.053l0.129,0.063l0.229,0.111l0.173,0.085l0.09,0.043l0.107,0.052l0.262,0.125l0.183,0.088l0.07,0.033l0.086,0.042l0.302,0.142l0.186,0.088l0.05,0.023l0.065,0.031l0.359,0.167l0.173,0.08l0.029,0.014l0.044,0.02l0.475,0.218l0.1,0.045l0.008,0.004c0.424,0.193 0.85,0.384 1.278,0.572l0.016,0.007l0.127,0.056l0.432,0.189c-60.603,20.59 -143.207,-4.086 -206.087,-66.966c-62.297,-62.296 -87.093,-143.95 -67.506,-204.391l0.131,0.309Z" style="fill:#fff;"/><path d="M373.484,73.301l-0.059,-0.024c61.33,-22.435 146.1,3.321 209.462,68.866c59.663,61.719 83.413,141.21 65.571,200.86l-0.121,-0.265l-0.052,-0.115l-0.03,-0.065l-0.064,-0.141l-0.141,-0.306l-0.053,-0.116l-0.023,-0.048l-0.052,-0.114l-0.168,-0.358l-0.049,-0.106l-0.014,-0.031l-0.041,-0.087l-0.208,-0.438l-0.032,-0.068l-0.006,-0.013c-0.295,-0.617 -0.594,-1.231 -0.899,-1.843l-0.264,-0.526l-0.036,-0.072l-0.012,-0.023l-0.05,-0.099l-0.192,-0.378l-0.049,-0.095l-0.022,-0.042l-0.061,-0.12l-0.162,-0.314l-0.062,-0.119l-0.031,-0.059l-0.064,-0.123l-0.14,-0.268l-0.076,-0.143l-0.04,-0.076l-0.062,-0.117l-0.122,-0.231l-0.09,-0.168l-0.049,-0.093l-0.058,-0.106l-0.106,-0.198l-0.106,-0.195l-0.057,-0.107l-0.052,-0.093l-0.091,-0.169l-0.123,-0.223l-0.065,-0.119l-0.044,-0.079l-0.077,-0.14l-0.142,-0.255l-0.071,-0.128l-0.035,-0.063l-0.064,-0.115l-0.165,-0.291l-0.073,-0.131l-0.027,-0.046l-0.05,-0.09l-0.195,-0.34l-0.069,-0.122l-0.017,-0.029l-0.038,-0.065l-0.243,-0.42l-0.047,-0.081l-0.007,-0.012c-0.228,-0.392 -0.459,-0.782 -0.692,-1.172l-0.315,-0.523l-0.029,-0.047l-0.012,-0.021l-0.071,-0.116l-0.221,-0.363l-0.043,-0.069l-0.024,-0.039l-0.086,-0.14l-0.184,-0.297l-0.057,-0.091l-0.035,-0.057l-0.089,-0.142l-0.159,-0.254l-0.071,-0.112l-0.047,-0.075l-0.086,-0.136l-0.139,-0.218l-0.086,-0.135l-0.059,-0.092l-0.08,-0.125l-0.121,-0.188l-0.101,-0.157l-0.071,-0.109l-0.072,-0.111l-0.105,-0.161l-0.118,-0.18l-0.081,-0.124l-0.064,-0.096l-0.089,-0.136l-0.136,-0.205l-0.091,-0.137l-0.054,-0.081l-0.074,-0.111l-0.156,-0.232l-0.1,-0.148l-0.043,-0.064l-0.059,-0.088l-0.181,-0.265l-0.104,-0.153l-0.032,-0.046l-0.045,-0.066l-0.212,-0.308l-0.102,-0.148l-0.02,-0.028l-0.03,-0.044l-0.27,-0.387l-0.074,-0.106l-0.008,-0.011c-0.257,-0.367 -0.517,-0.732 -0.779,-1.096l-0.012,-0.017l-0.096,-0.132l-0.25,-0.345l-0.034,-0.046l-0.025,-0.035l-0.117,-0.159l-0.204,-0.278l-0.049,-0.067l-0.039,-0.053l-0.118,-0.159l-0.177,-0.238l-0.064,-0.086l-0.053,-0.07l-0.114,-0.151l-0.155,-0.207l-0.081,-0.106l-0.066,-0.088l-0.106,-0.139l-0.136,-0.179l-0.097,-0.127l-0.08,-0.104l-0.096,-0.125l-0.119,-0.155l-0.115,-0.147l-0.093,-0.12l-0.085,-0.109l-0.103,-0.132l-0.132,-0.169l-0.106,-0.135l-0.074,-0.092l-0.086,-0.11l-0.152,-0.191l-0.118,-0.149l-0.061,-0.076l-0.071,-0.088l-0.174,-0.216l-0.128,-0.16l-0.047,-0.058l-0.055,-0.069l-0.2,-0.245l-0.135,-0.165l-0.034,-0.042l-0.039,-0.048l-0.237,-0.286l-0.131,-0.159l-0.02,-0.024l-0.023,-0.029l-0.317,-0.379l-0.084,-0.101l-0.006,-0.007c-0.144,-0.171 -0.288,-0.343 -0.434,-0.514l-0.008,-0.009l-0.101,-0.118l-0.302,-0.353l-0.025,-0.03l-0.023,-0.027l-0.14,-0.161l-0.235,-0.272l-0.042,-0.048l-0.038,-0.044l-0.144,-0.164l-0.202,-0.231l-0.06,-0.067l-0.053,-0.061l-0.138,-0.156l-0.179,-0.202l-0.077,-0.085l-0.068,-0.077l-0.13,-0.144l-0.158,-0.177l-0.095,-0.104l-0.083,-0.093l-0.118,-0.13l-0.14,-0.154l-0.113,-0.124l-0.099,-0.108l-0.105,-0.114l-0.122,-0.133l-0.132,-0.143l-0.114,-0.123l-0.092,-0.098l-0.104,-0.112l-0.153,-0.164l-0.127,-0.136l-0.078,-0.083l-0.087,-0.092l-0.175,-0.185l-0.141,-0.148l-0.063,-0.066l-0.069,-0.073l-0.201,-0.21l-0.151,-0.157l-0.047,-0.049l-0.053,-0.055l-0.232,-0.239l-0.155,-0.16l-0.032,-0.033l-0.035,-0.036l-0.283,-0.287l-0.141,-0.144l-0.016,-0.016c-0.16,-0.162 -0.319,-0.322 -0.479,-0.482c-0.153,-0.153 -0.307,-0.306 -0.463,-0.46l-0.006,-0.006l-0.148,-0.145l-0.299,-0.294l-0.012,-0.012l-0.012,-0.012l-0.173,-0.168l-0.264,-0.256l-0.018,-0.018l-0.018,-0.018l-0.18,-0.172l-0.247,-0.237l-0.025,-0.024l-0.024,-0.023l-0.181,-0.172l-0.235,-0.223l-0.032,-0.03l-0.03,-0.028l-0.18,-0.169l-0.226,-0.212l-0.038,-0.036l-0.036,-0.034l-0.177,-0.163l-0.218,-0.203l-0.046,-0.042l-0.041,-0.038l-0.173,-0.159l-0.212,-0.194l-0.053,-0.048l-0.047,-0.043l-0.169,-0.153l-0.205,-0.186l-0.06,-0.054l-0.053,-0.048l-0.163,-0.146l-0.2,-0.179l-0.067,-0.06l-0.059,-0.052l-0.158,-0.14l-0.194,-0.172l-0.075,-0.066l-0.064,-0.056l-0.153,-0.134l-0.188,-0.165l-0.083,-0.071l-0.069,-0.061l-0.148,-0.127l-0.182,-0.159l-0.091,-0.077l-0.075,-0.065l-0.141,-0.121l-0.177,-0.151l-0.099,-0.084l-0.08,-0.069l-0.136,-0.114l-0.171,-0.145l-0.108,-0.09l-0.085,-0.072l-0.13,-0.108l-0.166,-0.139l-0.116,-0.096l-0.09,-0.075l-0.123,-0.102l-0.161,-0.133l-0.125,-0.102l-0.095,-0.078l-0.117,-0.095l-0.155,-0.127l-0.135,-0.109l-0.1,-0.081l-0.11,-0.089l-0.15,-0.121l-0.144,-0.115l-0.104,-0.084l-0.104,-0.082l-0.144,-0.116l-0.154,-0.122l-0.109,-0.086l-0.096,-0.076l-0.139,-0.109l-0.166,-0.129l-0.111,-0.088l-0.09,-0.07l-0.134,-0.104l-0.176,-0.136l-0.115,-0.089l-0.083,-0.064l-0.128,-0.099l-0.188,-0.143l-0.117,-0.09l-0.077,-0.058l-0.122,-0.093l-0.202,-0.152l-0.118,-0.09l-0.07,-0.052l-0.116,-0.088l-0.216,-0.16l-0.119,-0.09l-0.063,-0.046l-0.11,-0.082l-0.231,-0.17l-0.119,-0.088l-0.055,-0.041l-0.105,-0.077l-0.248,-0.18l-0.117,-0.085l-0.048,-0.035l-0.1,-0.073l-0.266,-0.191l-0.113,-0.082l-0.041,-0.029l-0.093,-0.067l-0.288,-0.205l-0.107,-0.076l-0.034,-0.023l-0.087,-0.063l-0.313,-0.219l-0.097,-0.068l-0.026,-0.019l-0.082,-0.057l-0.343,-0.238l-0.082,-0.057l-0.019,-0.013l-0.076,-0.053l-0.38,-0.26l-0.06,-0.042l-0.012,-0.008l-0.069,-0.047l-0.429,-0.291l-0.031,-0.021c-2.509,-1.692 -5.083,-3.281 -7.716,-4.768l-0.418,-0.235l-0.145,-0.08l-0.407,-0.227l-0.158,-0.086l-0.396,-0.217l-0.172,-0.093l-0.384,-0.208l-0.186,-0.099l-0.371,-0.199l-0.201,-0.106l-0.359,-0.189l-0.215,-0.112l-0.345,-0.18l-0.232,-0.119l-0.331,-0.17l-0.248,-0.126l-0.316,-0.16l-0.267,-0.133l-0.299,-0.15l-0.288,-0.142c-13.146,-6.487 -27.622,-10.587 -42.936,-12.374c-19.987,-48.781 -58.928,-87.822 -107.643,-107.939l-0.028,-0.192l-0.016,-0.11l-0.018,-0.124l-0.029,-0.2l-0.028,-0.186l-0.02,-0.133l-0.02,-0.132l-0.026,-0.173l-0.028,-0.182l-0.023,-0.154l-0.022,-0.138l-0.023,-0.149l-0.028,-0.176l-0.028,-0.177l-0.022,-0.142l-0.021,-0.127l-0.027,-0.169l-0.033,-0.201l-0.023,-0.144l-0.018,-0.108l-0.027,-0.16l-0.037,-0.226l-0.025,-0.144l-0.015,-0.09l-0.026,-0.151l-0.043,-0.252l-0.025,-0.143l-0.013,-0.073l-0.024,-0.139l-0.05,-0.281l-0.025,-0.14l-0.01,-0.058l-0.023,-0.125l-0.056,-0.312l-0.025,-0.137l-0.008,-0.043l-0.02,-0.108l-0.064,-0.346l-0.025,-0.132l-0.005,-0.03l-0.017,-0.086l-0.073,-0.384l-0.024,-0.127l-0.004,-0.018l-0.011,-0.058l-0.083,-0.428l-0.024,-0.122l-0.006,-0.027c-0.806,-4.081 -1.789,-8.089 -2.948,-12.013l-0.062,-0.213l-0.111,-0.369l-0.071,-0.236l-0.105,-0.346l-0.079,-0.258l-0.101,-0.324l-0.086,-0.279l-0.096,-0.304l-0.007,-0.021l-0.006,-0.018l-0.081,-0.258l-0.092,-0.285l-0.007,-0.023l-0.007,-0.022l-0.087,-0.271l-0.087,-0.267l-0.008,-0.023l-0.009,-0.026l-0.092,-0.282l-0.083,-0.25l-0.008,-0.024l-0.009,-0.028l-0.098,-0.296l-0.079,-0.233l-0.008,-0.023l-0.01,-0.031l-0.105,-0.309l-0.074,-0.217l-0.008,-0.022l-0.011,-0.033l-0.111,-0.322l-0.07,-0.203l-0.007,-0.02l-0.012,-0.034l-0.118,-0.336l-0.066,-0.188l-0.007,-0.018l-0.012,-0.035l-0.124,-0.351l-0.063,-0.174l-0.006,-0.015l-0.012,-0.034l-0.132,-0.368l-0.059,-0.16l-0.004,-0.012l-0.011,-0.031l-0.142,-0.386l-0.054,-0.146l-0.164,-0.441l-0.05,-0.134l-0.171,-0.452l-0.049,-0.129c-0.863,-2.261 -1.789,-4.49 -2.779,-6.684l-0.047,-0.106l-0.182,-0.4l-0.038,-0.082l-0.006,-0.013l-0.032,-0.071l-0.164,-0.356l-0.051,-0.11l-0.01,-0.022l-0.036,-0.077l-0.151,-0.322l-0.059,-0.127l-0.015,-0.031l-0.039,-0.084l-0.14,-0.295l-0.065,-0.137l-0.019,-0.04l-0.043,-0.09l-0.13,-0.272l-0.069,-0.143l-0.024,-0.049l-0.046,-0.097l-0.123,-0.251l-0.071,-0.147l-0.029,-0.058l-0.049,-0.102l-0.116,-0.234l-0.073,-0.148l-0.033,-0.067l-0.054,-0.109l-0.109,-0.218l-0.073,-0.147l-0.039,-0.076l-0.057,-0.114l-0.103,-0.204l-0.074,-0.146l-0.043,-0.084l-0.061,-0.12l-0.097,-0.19l-0.073,-0.143l-0.049,-0.094l-0.065,-0.126l-0.092,-0.177l-0.072,-0.14l-0.054,-0.103l-0.068,-0.131l-0.087,-0.165l-0.071,-0.135l-0.06,-0.112l-0.072,-0.137l-0.082,-0.154l-0.069,-0.131l-0.065,-0.121l-0.076,-0.141l-0.078,-0.144l-0.067,-0.125l-0.071,-0.13l-0.079,-0.147l-0.073,-0.133l-0.066,-0.12l-0.076,-0.14l-0.084,-0.152l-0.068,-0.123l-0.063,-0.114l-0.083,-0.149l-0.087,-0.156l-0.063,-0.114l-0.061,-0.108l-0.089,-0.158l-0.091,-0.161l-0.059,-0.104l-0.057,-0.102l-0.096,-0.168l-0.094,-0.165l-0.055,-0.095l-0.055,-0.096l-0.103,-0.178l-0.097,-0.169l-0.05,-0.086l-0.052,-0.089l-0.11,-0.188l-0.1,-0.173l-0.046,-0.077l-0.048,-0.082l-0.118,-0.199l-0.104,-0.176l-0.041,-0.069l-0.045,-0.075l-0.126,-0.21l-0.106,-0.178l-0.037,-0.061l-0.041,-0.068l-0.135,-0.223l-0.108,-0.179l-0.033,-0.053l-0.037,-0.061l-0.144,-0.235l-0.11,-0.18l-0.028,-0.045l-0.033,-0.054l-0.156,-0.25l-0.11,-0.178l-0.023,-0.037l-0.03,-0.047l-0.168,-0.268l-0.109,-0.173l-0.019,-0.03l-0.025,-0.04l-0.185,-0.29l-0.104,-0.164l-0.014,-0.022l-0.021,-0.033l-0.207,-0.322l-0.093,-0.145l-0.01,-0.014l-0.016,-0.026l-0.244,-0.374l-0.069,-0.106l-0.004,-0.007c-0.338,-0.517 -0.681,-1.03 -1.027,-1.541l-0.33,-0.484l-0.015,-0.022l-0.006,-0.009l-0.074,-0.106l-0.248,-0.36l-0.021,-0.03l-0.01,-0.015l-0.093,-0.133l-0.221,-0.317l-0.027,-0.037l-0.015,-0.022l-0.103,-0.145l-0.204,-0.29l-0.032,-0.044l-0.02,-0.029l-0.107,-0.15l-0.192,-0.269l-0.037,-0.051l-0.025,-0.035l-0.11,-0.153l-0.182,-0.251l-0.043,-0.059l-0.03,-0.041l-0.111,-0.152l-0.172,-0.236l-0.049,-0.066l-0.035,-0.048l-0.111,-0.15l-0.165,-0.223l-0.054,-0.073l-0.04,-0.054l-0.11,-0.147l-0.158,-0.211l-0.06,-0.08l-0.045,-0.06l-0.109,-0.143l-0.151,-0.2l-0.066,-0.087l-0.051,-0.066l-0.106,-0.14l-0.144,-0.188l-0.073,-0.094l-0.055,-0.073l-0.105,-0.134l-0.138,-0.179l-0.078,-0.1l-0.061,-0.079l-0.102,-0.13l-0.132,-0.169l-0.084,-0.107l-0.067,-0.085l-0.099,-0.124l-0.126,-0.16l-0.09,-0.113l-0.073,-0.092l-0.095,-0.119l-0.12,-0.15l-0.097,-0.12l-0.078,-0.097l-0.093,-0.114l-0.113,-0.141l-0.104,-0.126l-0.084,-0.104l-0.089,-0.108l-0.108,-0.132l-0.109,-0.133l-0.09,-0.11l-0.085,-0.102l-0.102,-0.124l-0.117,-0.139l-0.096,-0.116l-0.081,-0.097l-0.096,-0.115l-0.123,-0.145l-0.102,-0.122l-0.077,-0.091l-0.09,-0.107l-0.13,-0.152l-0.108,-0.127l-0.073,-0.085l-0.084,-0.099l-0.137,-0.158l-0.114,-0.133l-0.069,-0.079l-0.078,-0.091l-0.144,-0.164l-0.12,-0.139l-0.064,-0.073l-0.073,-0.083l-0.15,-0.171l-0.127,-0.144l-0.059,-0.067l-0.067,-0.076l-0.158,-0.177l-0.133,-0.149l-0.054,-0.061l-0.061,-0.068l-0.166,-0.184l-0.138,-0.154l-0.05,-0.055l-0.055,-0.061l-0.174,-0.19l-0.144,-0.159l-0.045,-0.049l-0.049,-0.054l-0.181,-0.197l-0.151,-0.163l-0.039,-0.043l-0.043,-0.046l-0.191,-0.205l-0.155,-0.167l-0.035,-0.037l-0.036,-0.039l-0.201,-0.213l-0.16,-0.17l-0.029,-0.03l-0.03,-0.033l-0.212,-0.222l-0.163,-0.172l-0.023,-0.024l-0.025,-0.026l-0.225,-0.234l-0.164,-0.171l-0.018,-0.018l-0.019,-0.019l-0.244,-0.251l-0.159,-0.164l-0.012,-0.013l-0.013,-0.012l-0.28,-0.285l-0.139,-0.141l-0.006,-0.006c-0.147,-0.149 -0.293,-0.296 -0.44,-0.443c0,0 -0.272,-0.271 -0.272,-0.271l-0.214,-0.212l-0.026,-0.026l-0.011,-0.011c-0.155,-0.153 -0.311,-0.305 -0.467,-0.458l-0.037,-0.036l-0.021,-0.02c-0.152,-0.148 -0.303,-0.295 -0.457,-0.443l-0.04,-0.038l-0.03,-0.029c-0.151,-0.145 -0.302,-0.29 -0.453,-0.433l-0.037,-0.036l-0.037,-0.034c-0.151,-0.144 -0.303,-0.288 -0.455,-0.43l-0.031,-0.029l-0.04,-0.038c-0.154,-0.144 -0.307,-0.287 -0.462,-0.43l-0.024,-0.022l-0.039,-0.036c-0.158,-0.147 -0.317,-0.293 -0.476,-0.438l-0.013,-0.012l-0.031,-0.028c-0.166,-0.152 -0.332,-0.303 -0.498,-0.453l-0.279,-0.251l-0.233,-0.208l-0.024,-0.021l-0.009,-0.009c-0.163,-0.144 -0.326,-0.288 -0.49,-0.433l-0.037,-0.033l-0.021,-0.018c-0.158,-0.139 -0.317,-0.278 -0.476,-0.416l-0.042,-0.037l-0.03,-0.025c-0.156,-0.136 -0.313,-0.271 -0.471,-0.407l-0.041,-0.035l-0.037,-0.032c-0.157,-0.134 -0.315,-0.269 -0.472,-0.401l-0.035,-0.03l-0.042,-0.035c-0.159,-0.135 -0.319,-0.269 -0.477,-0.402l-0.027,-0.022l-0.043,-0.035c-0.163,-0.136 -0.326,-0.272 -0.489,-0.407l-0.017,-0.014l-0.036,-0.029c-0.169,-0.14 -0.339,-0.279 -0.51,-0.418l-0.286,-0.232l-0.252,-0.203l-0.022,-0.018l-0.009,-0.006c-0.169,-0.136 -0.339,-0.272 -0.509,-0.407l-0.039,-0.031l-0.02,-0.016c-0.164,-0.13 -0.329,-0.259 -0.494,-0.389l-0.045,-0.035l-0.031,-0.024c-0.162,-0.127 -0.325,-0.253 -0.487,-0.378l-0.044,-0.035l-0.039,-0.03c-0.162,-0.124 -0.324,-0.248 -0.486,-0.372l-0.039,-0.03l-0.045,-0.034c-0.164,-0.125 -0.327,-0.249 -0.491,-0.371l-0.031,-0.024l-0.047,-0.035c-0.167,-0.126 -0.334,-0.25 -0.501,-0.374l-0.021,-0.016l-0.043,-0.032c-0.172,-0.128 -0.345,-0.255 -0.519,-0.382l-0.01,-0.008l-0.027,-0.019l-0.256,-0.187l-0.268,-0.195l-0.023,-0.016l-0.008,-0.006c-0.174,-0.126 -0.349,-0.252 -0.526,-0.377l-0.042,-0.031l-0.021,-0.015c-0.169,-0.12 -0.338,-0.24 -0.508,-0.359l-0.05,-0.036l-0.032,-0.022c-0.166,-0.117 -0.333,-0.233 -0.499,-0.349l-0.05,-0.035l-0.043,-0.029c-0.165,-0.114 -0.33,-0.228 -0.495,-0.342l-0.046,-0.031l-0.05,-0.034c-0.166,-0.114 -0.332,-0.227 -0.498,-0.339l-0.038,-0.026l-0.054,-0.036c-0.168,-0.113 -0.337,-0.227 -0.507,-0.34l-0.027,-0.019l-0.052,-0.034c-0.174,-0.116 -0.349,-0.231 -0.523,-0.346l-0.016,-0.01l-0.041,-0.027l-0.244,-0.16l-0.282,-0.183l-0.026,-0.018l-0.011,-0.007l-0.314,-0.202l-0.221,-0.142l-0.05,-0.032l-0.022,-0.014c-0.173,-0.11 -0.345,-0.22 -0.517,-0.329l-0.058,-0.036l-0.036,-0.023c-0.168,-0.106 -0.337,-0.212 -0.506,-0.316l-0.058,-0.037l-0.047,-0.029c-0.167,-0.104 -0.335,-0.207 -0.501,-0.31l-0.055,-0.033l-0.056,-0.034l-0.108,-0.067l-0.176,-0.107l-0.264,-0.16l-0.117,-0.071l-0.088,-0.053l-0.165,-0.098l-0.237,-0.143l-0.14,-0.083l-0.105,-0.062l-0.152,-0.09l-0.212,-0.125l-0.165,-0.097l-0.121,-0.071l-0.136,-0.079l-0.189,-0.11l-0.191,-0.11l-0.136,-0.079l-0.12,-0.068l-0.167,-0.096l-0.218,-0.124l-0.15,-0.085l-0.103,-0.058l-0.145,-0.082l-0.248,-0.139l-0.161,-0.091l-0.086,-0.047l-0.123,-0.069l-0.282,-0.155l-0.169,-0.094l-0.067,-0.037l-0.102,-0.055l-0.324,-0.176l-0.169,-0.092l-0.049,-0.027l-0.08,-0.043l-0.381,-0.204l-0.154,-0.083l-0.031,-0.016l-0.059,-0.031l-0.481,-0.254l-0.097,-0.051l-0.011,-0.006c-0.441,-0.231 -0.884,-0.459 -1.328,-0.684l-0.602,-0.304l-0.054,-0.027l-0.02,-0.01l-0.126,-0.062l-0.435,-0.216l-0.078,-0.038l-0.038,-0.019l-0.152,-0.074l-0.369,-0.181l-0.102,-0.049l-0.056,-0.027l-0.157,-0.075l-0.325,-0.156l-0.126,-0.06l-0.074,-0.035l-0.152,-0.072l-0.289,-0.137l-0.153,-0.071l-0.089,-0.043l-0.144,-0.066l-0.257,-0.12l-0.18,-0.083l-0.106,-0.049l-0.13,-0.059l-0.23,-0.106l-0.209,-0.094l-0.119,-0.054l-0.116,-0.052l-0.203,-0.092l-0.24,-0.107l-0.132,-0.059l-0.1,-0.044l-0.178,-0.079l-0.274,-0.12l-0.141,-0.062l-0.083,-0.036l-0.153,-0.067l-0.314,-0.135l-0.145,-0.063l-0.065,-0.027l-0.13,-0.056l-0.361,-0.153l-0.142,-0.06l-0.047,-0.02l-0.105,-0.045l-0.426,-0.177l-0.121,-0.05l-0.028,-0.012l-0.083,-0.034l-0.532,-0.218l-0.059,-0.024l-0.009,-0.004Z" style="fill:#fff;"/><g><path d="M665.736,575.685c0,-3.744 0.907,-7.151 2.722,-10.22c1.814,-3.07 4.256,-5.511 7.325,-7.326c3.069,-1.814 6.476,-2.721 10.221,-2.721l38.393,-0l-0,12.16l-38.393,0c-2.239,0 -4.141,0.792 -5.704,2.374c-1.564,1.583 -2.345,3.494 -2.345,5.733l-0,10.076l30.227,0c3.706,0 7.084,0.83 10.134,2.49c3.05,1.66 5.473,3.89 7.268,6.689c1.795,2.798 2.692,5.896 2.692,9.294l0,13.434c0,3.706 -0.897,7.075 -2.692,10.105c-1.795,3.031 -4.218,5.453 -7.268,7.268c-3.05,1.814 -6.428,2.721 -10.134,2.721l-22.178,0c-3.706,0 -7.094,-0.907 -10.163,-2.721c-3.069,-1.815 -5.521,-4.237 -7.354,-7.268c-1.834,-3.03 -2.751,-6.399 -2.751,-10.105l0,-41.983Zm12.219,41.983c-0,2.162 0.781,4.015 2.345,5.559c1.563,1.545 3.465,2.317 5.704,2.317l22.178,-0c2.201,-0 4.073,-0.772 5.617,-2.317c1.545,-1.544 2.317,-3.397 2.317,-5.559l-0,-13.434c-0,-2.046 -0.772,-3.774 -2.317,-5.183c-1.544,-1.409 -3.416,-2.114 -5.617,-2.114l-30.227,0l-0,20.731Z" style="fill:#60d6b6;fill-rule:nonzero;"/><path d="M733.873,555.418l12.218,-0l0,28.258c0,2.24 0.782,4.141 2.345,5.704c1.564,1.564 3.465,2.346 5.704,2.346l28.375,-0l0,-36.308l12.161,-0l-0,82.344l-12.161,0l0,-33.876l-28.375,0c-3.706,0 -7.093,-0.907 -10.163,-2.721c-3.069,-1.815 -5.52,-4.237 -7.354,-7.268c-1.834,-3.03 -2.75,-6.399 -2.75,-10.105l-0,-28.374Z" style="fill:#60d6b6;fill-rule:nonzero;"/></g></g></svg>